<svg width="30" height="30" viewBox="0 0 30 30" fill="none" xmlns="http://www.w3.org/2000/svg">
<path d="M9 27.5V26.75V26.75V27.5ZM21 27.5V28.25V28.25V27.5ZM25 23.5L24.25 23.5V23.5H25ZM25 6.5H25.75V6.5H25ZM24.7275 3.86502L25.3958 3.52453V3.52453L24.7275 3.86502ZM21 2.5V1.75V2.5ZM23.635 2.77248L23.9755 2.10423L23.9755 2.10423L23.635 2.77248ZM23.635 27.2275L23.9755 27.8958V27.8958L23.635 27.2275ZM24.7275 26.135L24.0593 25.7945V25.7945L24.7275 26.135ZM6.36503 27.2275L6.70552 26.5593V26.5593L6.36503 27.2275ZM5 23.5H4.25H5ZM5.27249 26.135L5.94074 25.7945H5.94074L5.27249 26.135ZM5.75 10C5.75 9.58579 5.41421 9.25 5 9.25C4.58579 9.25 4.25 9.58579 4.25 10L5 10H5.75ZM12.5 1.75C12.0858 1.75 11.75 2.08579 11.75 2.5C11.75 2.91421 12.0858 3.25 12.5 3.25V2.5V1.75ZM5.21339 9.78661L4.68306 9.25628L5.21339 9.78661ZM12.2866 2.71339L12.8169 3.24372L12.2866 2.71339ZM5.30178 10L5.30178 10.75L5.30178 10ZM11.25 10V9.25V10ZM12.5 8.75H11.75H11.75H12.5ZM12.5 2.80178H13.25V2.80178L12.5 2.80178ZM10 14.25C9.58579 14.25 9.25 14.5858 9.25 15C9.25 15.4142 9.58579 15.75 10 15.75V15V14.25ZM20 15.75C20.4142 15.75 20.75 15.4142 20.75 15C20.75 14.5858 20.4142 14.25 20 14.25V15V15.75ZM17.5 9.25C17.0858 9.25 16.75 9.58579 16.75 10C16.75 10.4142 17.0858 10.75 17.5 10.75V10V9.25ZM20 10.75C20.4142 10.75 20.75 10.4142 20.75 10C20.75 9.58579 20.4142 9.25 20 9.25V10V10.75ZM10 19.25C9.58579 19.25 9.25 19.5858 9.25 20C9.25 20.4142 9.58579 20.75 10 20.75V20V19.25ZM20 20.75C20.4142 20.75 20.75 20.4142 20.75 20C20.75 19.5858 20.4142 19.25 20 19.25V20V20.75ZM9 27.5V28.25H21V27.5V26.75H9V27.5ZM25 23.5H25.75V6.5H25H24.25V23.5H25ZM25 6.5H25.75C25.75 5.81231 25.7506 5.25144 25.7134 4.79693C25.6756 4.33367 25.5949 3.91527 25.3958 3.52453L24.7275 3.86502L24.0593 4.20552C24.1327 4.34955 24.1882 4.54858 24.2184 4.91908C24.2494 5.29833 24.25 5.78756 24.25 6.5L25 6.5ZM21 2.5V3.25C21.7124 3.25 22.2017 3.25058 22.5809 3.28157C22.9514 3.31184 23.1504 3.36735 23.2945 3.44074L23.635 2.77248L23.9755 2.10423C23.5847 1.90514 23.1663 1.8244 22.7031 1.78655C22.2486 1.74942 21.6877 1.75 21 1.75V2.5ZM24.7275 3.86502L25.3958 3.52453C25.0842 2.913 24.587 2.41582 23.9755 2.10423L23.635 2.77248L23.2945 3.44074C23.6238 3.60852 23.8915 3.87623 24.0593 4.20552L24.7275 3.86502ZM21 27.5V28.25C21.6877 28.25 22.2486 28.2506 22.7031 28.2134C23.1663 28.1756 23.5847 28.0949 23.9755 27.8958L23.635 27.2275L23.2945 26.5593C23.1504 26.6327 22.9514 26.6882 22.5809 26.7184C22.2017 26.7494 21.7124 26.75 21 26.75V27.5ZM25 23.5H24.25C24.25 24.2124 24.2494 24.7017 24.2184 25.0809C24.1882 25.4514 24.1327 25.6504 24.0593 25.7945L24.7275 26.135L25.3958 26.4755C25.5949 26.0847 25.6756 25.6663 25.7134 25.2031C25.7506 24.7486 25.75 24.1877 25.75 23.5L25 23.5ZM23.635 27.2275L23.9755 27.8958C24.587 27.5842 25.0842 27.087 25.3958 26.4755L24.7275 26.135L24.0593 25.7945C23.8915 26.1238 23.6238 26.3915 23.2945 26.5593L23.635 27.2275ZM9 27.5V26.75C8.28756 26.75 7.79833 26.7494 7.41908 26.7184C7.04858 26.6882 6.84956 26.6327 6.70552 26.5593L6.36503 27.2275L6.02453 27.8958C6.41527 28.0949 6.83367 28.1756 7.29693 28.2134C7.75144 28.2506 8.31231 28.25 9 28.25V27.5ZM5 23.5H4.25C4.25 24.1877 4.24942 24.7486 4.28655 25.2031C4.3244 25.6663 4.40514 26.0847 4.60423 26.4755L5.27249 26.135L5.94074 25.7945C5.86735 25.6504 5.81184 25.4514 5.78157 25.0809C5.75058 24.7017 5.75 24.2124 5.75 23.5H5ZM6.36503 27.2275L6.70552 26.5593C6.37624 26.3915 6.10852 26.1238 5.94074 25.7945L5.27249 26.135L4.60423 26.4755C4.91582 27.087 5.413 27.5842 6.02453 27.8958L6.36503 27.2275ZM5 10L4.25 10L4.25 23.5H5H5.75L5.75 10H5ZM21 2.5V1.75L12.5 1.75V2.5V3.25L21 3.25V2.5ZM5.21339 9.78661L5.74372 10.3169L12.8169 3.24372L12.2866 2.71339L11.7563 2.18306L4.68306 9.25628L5.21339 9.78661ZM5.30178 10L5.30178 10.75H11.25V10V9.25L5.30178 9.25L5.30178 10ZM12.5 8.75H13.25V2.80178H12.5H11.75V8.75H12.5ZM11.25 10V10.75C12.3546 10.75 13.25 9.85457 13.25 8.75H12.5H11.75C11.75 9.02614 11.5261 9.25 11.25 9.25V10ZM12.2866 2.71339L12.8169 3.24372C12.4232 3.63745 11.75 3.3586 11.75 2.80178L12.5 2.80178L13.25 2.80178C13.25 2.02223 12.3075 1.63184 11.7563 2.18306L12.2866 2.71339ZM5.21339 9.78661L4.68306 9.25628C4.13184 9.8075 4.52224 10.75 5.30178 10.75L5.30178 10L5.30178 9.25C5.85859 9.25 6.13745 9.92322 5.74372 10.3169L5.21339 9.78661ZM10 15V15.75H20V15V14.25H10V15ZM17.5 10V10.75H20V10V9.25H17.5V10ZM10 20V20.75H20V20V19.25H10V20Z" fill="#2E2216"/>
</svg>
