<svg width="24" height="27" viewBox="0 0 24 27" fill="none" xmlns="http://www.w3.org/2000/svg">
<path d="M6.98223 7C6.98223 7.41421 7.31802 7.75 7.73223 7.75C8.14644 7.75 8.48223 7.41421 8.48223 7H7.73223H6.98223ZM8.48223 19.5C8.48223 19.0858 8.14644 18.75 7.73223 18.75C7.31802 18.75 6.98223 19.0858 6.98223 19.5H7.73223H8.48223ZM9.09725 25.4775L9.43775 24.8093H9.43775L9.09725 25.4775ZM8.00471 24.385L7.33646 24.7255V24.7255L8.00471 24.385ZM22.4597 24.385L23.128 24.7255V24.7255L22.4597 24.385ZM21.3672 25.4775L21.0267 24.8093H21.0267L21.3672 25.4775ZM21.3672 1.02248L21.0267 1.69074L21.0267 1.69074L21.3672 1.02248ZM22.4597 2.11502L21.7915 2.45552V2.45552L22.4597 2.11502ZM8.00471 2.11502L7.33646 1.77453V1.77453L8.00471 2.11502ZM9.09725 1.02248L8.75676 0.354229V0.354229L9.09725 1.02248ZM1.48223 12.5C1.06802 12.5 0.732231 12.8358 0.732231 13.25C0.732231 13.6642 1.06802 14 1.48223 14L1.48223 13.25L1.48223 12.5ZM15.2322 14C15.6464 14 15.9822 13.6642 15.9822 13.25C15.9822 12.8358 15.6464 12.5 15.2322 12.5V13.25V14ZM4.51256 10.0303C4.80545 9.73744 4.80545 9.26256 4.51256 8.96967C4.21967 8.67678 3.74479 8.67678 3.4519 8.96967L3.98223 9.5L4.51256 10.0303ZM1.64645 11.8358L1.11612 11.3055H1.11612L1.64645 11.8358ZM1.64644 14.6642L1.11611 15.1945L1.11611 15.1945L1.64644 14.6642ZM3.4519 17.5303C3.7448 17.8232 4.21967 17.8232 4.51256 17.5303C4.80546 17.2374 4.80546 16.7626 4.51256 16.4697L3.98223 17L3.4519 17.5303ZM0.811179 12.8637L1.52447 13.0955L1.52447 13.0955L0.811179 12.8637ZM0.811179 13.6363L1.52447 13.4045L0.811179 13.6363ZM7.73223 7H8.48223V4.75H7.73223H6.98223V7H7.73223ZM11.7322 0.75V1.5H18.7322V0.75V0H11.7322V0.75ZM22.7322 4.75H21.9822V21.75H22.7322H23.4822V4.75H22.7322ZM18.7322 25.75V25H11.7322V25.75V26.5H18.7322V25.75ZM7.73223 21.75H8.48223V19.5H7.73223H6.98223V21.75H7.73223ZM11.7322 25.75V25C11.0198 25 10.5306 24.9994 10.1513 24.9684C9.78081 24.9382 9.58179 24.8827 9.43775 24.8093L9.09725 25.4775L8.75676 26.1458C9.1475 26.3449 9.5659 26.4256 10.0292 26.4634C10.4837 26.5006 11.0445 26.5 11.7322 26.5V25.75ZM7.73223 21.75H6.98223C6.98223 22.4377 6.98165 22.9986 7.01878 23.4531C7.05663 23.9163 7.13737 24.3347 7.33646 24.7255L8.00471 24.385L8.67297 24.0445C8.59958 23.9004 8.54407 23.7014 8.5138 23.3309C8.48281 22.9517 8.48223 22.4624 8.48223 21.75H7.73223ZM9.09725 25.4775L9.43775 24.8093C9.10846 24.6415 8.84075 24.3738 8.67297 24.0445L8.00471 24.385L7.33646 24.7255C7.64805 25.337 8.14524 25.8342 8.75676 26.1458L9.09725 25.4775ZM22.7322 21.75H21.9822C21.9822 22.4624 21.9816 22.9517 21.9507 23.3309C21.9204 23.7014 21.8649 23.9004 21.7915 24.0445L22.4597 24.385L23.128 24.7255C23.3271 24.3347 23.4078 23.9163 23.4457 23.4531C23.4828 22.9986 23.4822 22.4377 23.4822 21.75H22.7322ZM18.7322 25.75V26.5C19.4199 26.5 19.9808 26.5006 20.4353 26.4634C20.8986 26.4256 21.317 26.3449 21.7077 26.1458L21.3672 25.4775L21.0267 24.8093C20.8827 24.8827 20.6837 24.9382 20.3132 24.9684C19.9339 24.9994 19.4447 25 18.7322 25V25.75ZM22.4597 24.385L21.7915 24.0445C21.6237 24.3738 21.356 24.6415 21.0267 24.8093L21.3672 25.4775L21.7077 26.1458C22.3192 25.8342 22.8164 25.337 23.128 24.7255L22.4597 24.385ZM18.7322 0.75V1.5C19.4447 1.5 19.9339 1.50058 20.3132 1.53157C20.6837 1.56184 20.8827 1.61735 21.0267 1.69074L21.3672 1.02248L21.7077 0.354229C21.317 0.155137 20.8986 0.0744012 20.4353 0.0365513C19.9808 -0.000583291 19.4199 0 18.7322 0V0.75ZM22.7322 4.75H23.4822C23.4822 4.06231 23.4828 3.50144 23.4457 3.04693C23.4078 2.58367 23.3271 2.16527 23.128 1.77453L22.4597 2.11502L21.7915 2.45552C21.8649 2.59956 21.9204 2.79858 21.9507 3.16908C21.9816 3.54833 21.9822 4.03756 21.9822 4.75H22.7322ZM21.3672 1.02248L21.0267 1.69074C21.356 1.85852 21.6237 2.12623 21.7915 2.45552L22.4597 2.11502L23.128 1.77453C22.8164 1.163 22.3192 0.665817 21.7077 0.354229L21.3672 1.02248ZM7.73223 4.75H8.48223C8.48223 4.03756 8.48281 3.54833 8.5138 3.16908C8.54407 2.79858 8.59958 2.59956 8.67297 2.45552L8.00471 2.11502L7.33646 1.77453C7.13737 2.16527 7.05663 2.58367 7.01878 3.04693C6.98165 3.50144 6.98223 4.06231 6.98223 4.75H7.73223ZM11.7322 0.75V0C11.0445 0 10.4837 -0.000583291 10.0292 0.0365513C9.5659 0.0744012 9.1475 0.155137 8.75676 0.354229L9.09725 1.02248L9.43775 1.69074C9.58179 1.61735 9.78081 1.56184 10.1513 1.53157C10.5306 1.50058 11.0198 1.5 11.7322 1.5V0.75ZM8.00471 2.11502L8.67297 2.45552C8.84075 2.12623 9.10846 1.85852 9.43775 1.69074L9.09725 1.02248L8.75676 0.354229C8.14524 0.665817 7.64805 1.163 7.33646 1.77453L8.00471 2.11502ZM1.48223 13.25L1.48223 14L15.2322 14V13.25V12.5L1.48223 12.5L1.48223 13.25ZM3.98223 9.5L3.4519 8.96967L1.11612 11.3055L1.64645 11.8358L2.17678 12.3661L4.51256 10.0303L3.98223 9.5ZM1.64644 14.6642L1.11611 15.1945L3.4519 17.5303L3.98223 17L4.51256 16.4697L2.17677 14.1339L1.64644 14.6642ZM1.64645 11.8358L1.11612 11.3055C0.877357 11.5442 0.66598 11.7548 0.506201 11.943C0.340737 12.1379 0.187035 12.3576 0.097887 12.632L0.811179 12.8637L1.52447 13.0955C1.52806 13.0844 1.54448 13.0377 1.64971 12.9137C1.76063 12.7831 1.92051 12.6224 2.17678 12.3661L1.64645 11.8358ZM1.64644 14.6642L2.17678 14.1339C1.92052 13.8776 1.76063 13.7169 1.64971 13.5863C1.54448 13.4623 1.52806 13.4155 1.52447 13.4045L0.811179 13.6363L0.0978866 13.868C0.187035 14.1424 0.34074 14.3621 0.506202 14.557C0.665981 14.7452 0.877357 14.9558 1.11611 15.1945L1.64644 14.6642ZM0.811179 12.8637L0.0978871 12.632C-0.0326289 13.0336 -0.032629 13.4663 0.0978866 13.868L0.811179 13.6363L1.52447 13.4045C1.49184 13.3041 1.49184 13.1959 1.52447 13.0955L0.811179 12.8637Z" fill="#2E2216"/>
</svg>
