<svg width="28" height="28" viewBox="0 0 28 28" fill="none" xmlns="http://www.w3.org/2000/svg">
<path d="M3.50004 5.83333L12.5675 12.8858C13.4101 13.5412 14.59 13.5412 15.4326 12.8858L24.5 5.83333M6.06671 23.3333H21.9334C23.2402 23.3333 23.8936 23.3333 24.3927 23.079C24.8317 22.8553 25.1887 22.4984 25.4124 22.0593C25.6667 21.5602 25.6667 20.9068 25.6667 19.6V8.4C25.6667 7.09321 25.6667 6.43981 25.4124 5.94069C25.1887 5.50164 24.8317 5.14469 24.3927 4.92098C23.8936 4.66666 23.2402 4.66666 21.9334 4.66666H6.06671C4.75992 4.66666 4.10652 4.66666 3.6074 4.92098C3.16835 5.14469 2.8114 5.50164 2.58769 5.94069C2.33337 6.43981 2.33337 7.09321 2.33337 8.4V19.6C2.33337 20.9068 2.33337 21.5602 2.58769 22.0593C2.8114 22.4984 3.16835 22.8553 3.6074 23.079C4.10652 23.3333 4.75992 23.3333 6.06671 23.3333Z" stroke="#2E2216" stroke-width="1.2"/>
</svg>
