<svg width="30" height="30" viewBox="0 0 30 30" fill="none" xmlns="http://www.w3.org/2000/svg">
<path d="M3.75 5H4.5079C5.78368 5 6.8548 5.96063 6.99315 7.22888L8.00685 16.5211C8.1452 17.7894 9.21633 18.75 10.4921 18.75H21.3075C22.4503 18.75 23.4476 17.9751 23.73 16.8678L25.4549 10.1039C25.858 8.52318 24.6637 6.98611 23.0324 6.98611H8.25M8.28094 23.2812H9.21844M8.28094 24.2187H9.21844M22.0309 23.2812H22.9684M22.0309 24.2187H22.9684M10 23.75C10 24.4404 9.44036 25 8.75 25C8.05964 25 7.5 24.4404 7.5 23.75C7.5 23.0596 8.05964 22.5 8.75 22.5C9.44036 22.5 10 23.0596 10 23.75ZM23.75 23.75C23.75 24.4404 23.1904 25 22.5 25C21.8096 25 21.25 24.4404 21.25 23.75C21.25 23.0596 21.8096 22.5 22.5 22.5C23.1904 22.5 23.75 23.0596 23.75 23.75Z" stroke="#2E2216" stroke-width="1.5" stroke-linecap="round"/>
</svg>
