<svg width="24" height="24" viewBox="0 0 24 24" fill="none" xmlns="http://www.w3.org/2000/svg">
<path d="M1.32004 6.05003L1.96316 6.4359V6.4359L1.32004 6.05003ZM3.3348 2.69209L3.97792 3.07797V3.07797L3.3348 2.69209ZM20.6652 2.69209L20.0221 3.07796V3.07797L20.6652 2.69209ZM22.68 6.05003L22.0369 6.4359L22.68 6.05003ZM18.8451 0.868567L18.6169 1.58302V1.58302L18.8451 0.868567ZM19.7354 1.37265L20.2306 0.809418V0.809417L19.7354 1.37265ZM4.26466 1.37265L4.75991 1.93588V1.93588L4.26466 1.37265ZM5.15496 0.868567L4.9268 0.154114V0.154114L5.15496 0.868567ZM23.2172 7.28899L22.4771 7.41006V7.41006L23.2172 7.28899ZM23.0733 6.7692L23.7702 6.4922L23.7702 6.49219L23.0733 6.7692ZM21.885 22.9776L21.5445 22.3093V22.3093L21.885 22.9776ZM22.9775 21.8851L22.3093 21.5446V21.5446L22.9775 21.8851ZM1.0225 21.8851L0.354244 22.2255L0.354244 22.2255L1.0225 21.8851ZM2.11504 22.9776L2.45553 22.3093H2.45553L2.11504 22.9776ZM0.782799 7.28899L0.0426345 7.16793V7.16793L0.782799 7.28899ZM0.926775 6.7692L0.229803 6.4922L0.229803 6.4922L0.926775 6.7692ZM2.00002 6.25008C1.5858 6.25008 1.25002 6.58586 1.25002 7.00008C1.25002 7.41429 1.5858 7.75008 2.00002 7.75008V7.00008V6.25008ZM22 7.75008C22.4142 7.75008 22.75 7.41429 22.75 7.00008C22.75 6.58586 22.4142 6.25008 22 6.25008V7.00008V7.75008ZM16.5 12.0001C16.5 11.5859 16.1642 11.2501 15.75 11.2501C15.3358 11.2501 15 11.5859 15 12.0001H15.75H16.5ZM9.00002 12.0001C9.00002 11.5859 8.66423 11.2501 8.25002 11.2501C7.8358 11.2501 7.50002 11.5859 7.50002 12.0001H8.25002H9.00002ZM0.750015 8.10801H1.52588e-05V19.2501H0.750015H1.50002V8.10801H0.750015ZM4.75002 23.2501V24.0001H19.25V23.2501V22.5001H4.75002V23.2501ZM23.25 19.2501H24V8.10801H23.25H22.5V19.2501H23.25ZM1.32004 6.05003L1.96316 6.4359L3.97792 3.07797L3.3348 2.69209L2.69168 2.30622L0.676924 5.66416L1.32004 6.05003ZM6.76478 0.750076V1.50008H17.2353V0.750076V7.62939e-05H6.76478V0.750076ZM20.6652 2.69209L20.0221 3.07797L22.0369 6.4359L22.68 6.05003L23.3231 5.66416L21.3083 2.30622L20.6652 2.69209ZM17.2353 0.750076V1.50008C18.1107 1.50008 18.3836 1.5085 18.6169 1.58302L18.8451 0.868567L19.0732 0.154114C18.5645 -0.00835007 18.0115 7.62939e-05 17.2353 7.62939e-05V0.750076ZM20.6652 2.69209L21.3083 2.30622C20.9089 1.64055 20.6317 1.16207 20.2306 0.809418L19.7354 1.37265L19.2401 1.93588C19.4241 2.09762 19.5717 2.3273 20.0221 3.07796L20.6652 2.69209ZM18.8451 0.868567L18.6169 1.58302C18.8468 1.65642 19.0589 1.77655 19.2401 1.93588L19.7354 1.37265L20.2306 0.809417C19.8941 0.513533 19.5001 0.290427 19.0732 0.154114L18.8451 0.868567ZM3.3348 2.69209L3.97792 3.07797C4.42832 2.32731 4.57596 2.09762 4.75991 1.93588L4.26466 1.37265L3.7694 0.809418C3.36835 1.16207 3.09109 1.64055 2.69168 2.30622L3.3348 2.69209ZM6.76478 0.750076V7.62939e-05C5.98848 7.62939e-05 5.43553 -0.00835007 4.9268 0.154114L5.15496 0.868567L5.38312 1.58302C5.61646 1.5085 5.88936 1.50008 6.76478 1.50008V0.750076ZM4.26466 1.37265L4.75991 1.93588C4.9411 1.77655 5.15328 1.65642 5.38312 1.58302L5.15496 0.868567L4.9268 0.154114C4.49995 0.290427 4.1059 0.513533 3.7694 0.809418L4.26466 1.37265ZM23.25 8.10801H24C24 7.71919 24.0023 7.4423 23.9574 7.16793L23.2172 7.28899L22.4771 7.41006C22.4978 7.53657 22.5 7.67206 22.5 8.10801H23.25ZM22.68 6.05003L22.0369 6.4359C22.2612 6.80972 22.3289 6.92707 22.3763 7.0462L23.0733 6.7692L23.7702 6.49219C23.6675 6.23384 23.5232 5.99757 23.3231 5.66416L22.68 6.05003ZM23.2172 7.28899L23.9574 7.16793C23.9196 6.9366 23.8568 6.71004 23.7702 6.4922L23.0733 6.7692L22.3763 7.04619C22.4229 7.16349 22.4567 7.28549 22.4771 7.41006L23.2172 7.28899ZM19.25 23.2501V24.0001C19.9377 24.0001 20.4986 24.0007 20.9531 23.9635C21.4163 23.9257 21.8347 23.8449 22.2255 23.6458L21.885 22.9776L21.5445 22.3093C21.4005 22.3827 21.2014 22.4382 20.8309 22.4685C20.4517 22.4995 19.9625 22.5001 19.25 22.5001V23.2501ZM23.25 19.2501H22.5C22.5 19.9625 22.4994 20.4517 22.4684 20.831C22.4382 21.2015 22.3827 21.4005 22.3093 21.5446L22.9775 21.8851L23.6458 22.2255C23.8449 21.8348 23.9256 21.4164 23.9635 20.9531C24.0006 20.4986 24 19.9378 24 19.2501H23.25ZM21.885 22.9776L22.2255 23.6458C22.837 23.3343 23.3342 22.8371 23.6458 22.2255L22.9775 21.8851L22.3093 21.5446C22.1415 21.8738 21.8738 22.1416 21.5445 22.3093L21.885 22.9776ZM0.750015 19.2501H1.52588e-05C1.52588e-05 19.9378 -0.000568032 20.4986 0.0365666 20.9531C0.0744165 21.4164 0.155152 21.8348 0.354244 22.2255L1.0225 21.8851L1.69075 21.5446C1.61736 21.4005 1.56186 21.2015 1.53158 20.831C1.5006 20.4517 1.50002 19.9625 1.50002 19.2501H0.750015ZM4.75002 23.2501V22.5001C4.03757 22.5001 3.54835 22.4995 3.16909 22.4685C2.79859 22.4382 2.59957 22.3827 2.45553 22.3093L2.11504 22.9776L1.77455 23.6458C2.16529 23.8449 2.58369 23.9257 3.04695 23.9635C3.50145 24.0007 4.06233 24.0001 4.75002 24.0001V23.2501ZM1.0225 21.8851L0.354244 22.2255C0.665832 22.8371 1.16302 23.3343 1.77455 23.6458L2.11504 22.9776L2.45553 22.3093C2.12625 22.1416 1.85853 21.8738 1.69075 21.5446L1.0225 21.8851ZM0.750015 8.10801H1.50002C1.50002 7.67206 1.50227 7.53657 1.52296 7.41006L0.782799 7.28899L0.0426345 7.16793C-0.00224131 7.4423 1.52588e-05 7.71919 1.52588e-05 8.10801H0.750015ZM1.32004 6.05003L0.676924 5.66416C0.476877 5.99757 0.332483 6.23384 0.229803 6.4922L0.926775 6.7692L1.62375 7.0462C1.67109 6.92707 1.73887 6.80973 1.96316 6.4359L1.32004 6.05003ZM0.782799 7.28899L1.52296 7.41006C1.54334 7.28549 1.57713 7.1635 1.62375 7.0462L0.926775 6.7692L0.229803 6.4922C0.143227 6.71003 0.0804722 6.9366 0.0426345 7.16793L0.782799 7.28899ZM2.00002 7.00008V7.75008H22V7.00008V6.25008H2.00002V7.00008ZM15.75 12.0001H15C15 13.6569 13.6569 15.0001 12 15.0001V15.7501V16.5001C14.4853 16.5001 16.5 14.4854 16.5 12.0001H15.75ZM12 15.7501V15.0001C10.3432 15.0001 9.00002 13.6569 9.00002 12.0001H8.25002H7.50002C7.50002 14.4854 9.51473 16.5001 12 16.5001V15.7501Z" fill="#2E2216"/>
</svg>
