<svg width="24" height="14" viewBox="0 0 24 14" fill="none" xmlns="http://www.w3.org/2000/svg">
<path d="M23.7771 12.5616C23.7771 12.4658 23.6816 12.4658 23.6816 12.3699C23.2996 11.6027 22.4402 10.6438 21.2943 9.58905C20.7214 9.10959 20.4349 8.72603 20.2439 8.53425C19.9575 8.15068 19.9575 7.86302 20.053 7.47946C20.1485 7.19179 20.5304 6.71232 21.1988 5.84931C21.5808 5.36986 21.7718 5.08219 22.0582 4.79452C23.4906 2.87671 24.159 1.63013 23.968 1.05479L23.8726 0.958905C23.7771 0.863014 23.6816 0.767127 23.4906 0.767127C23.2996 0.671236 23.0131 0.671236 22.7267 0.767127H19.0981C19.0026 0.767127 19.0026 0.767127 18.8116 0.767127C18.7161 0.767127 18.6206 0.767127 18.6206 0.767127H18.5251H18.4296L18.3341 0.863008C18.2386 0.958899 18.2386 0.958896 18.2386 1.05479C17.8567 2.10958 17.3792 2.9726 16.9018 3.9315C16.6153 4.41095 16.3288 4.89041 16.0424 5.27398C15.7559 5.65754 15.5649 5.9452 15.3739 6.13698C15.1829 6.32877 14.992 6.42466 14.8965 6.61644C14.801 6.71233 14.61 6.80822 14.61 6.71233C14.5145 6.71233 14.419 6.71233 14.419 6.61644C14.3235 6.52055 14.228 6.42465 14.1326 6.32876C14.0371 6.23287 14.0371 6.04109 13.9416 5.84931C13.9416 5.65753 13.9416 5.46575 13.9416 5.36986C13.9416 5.27397 13.9416 4.9863 13.9416 4.79452C13.9416 4.50685 13.9416 4.31507 13.9416 4.21917C13.9416 3.9315 13.9416 3.54795 13.9416 3.16439C13.9416 2.78083 13.9416 2.49315 13.9416 2.30137C13.9416 2.10958 13.9416 1.82192 13.9416 1.63014C13.9416 1.34246 13.9416 1.15068 13.9416 1.05479C13.9416 0.958896 13.8461 0.767121 13.8461 0.67123C13.7506 0.57534 13.6551 0.479447 13.5596 0.383556C13.4641 0.287666 13.2731 0.287668 13.1777 0.191778C12.7002 0.0958875 12.1273 0 11.4588 0C9.931 0 8.8806 0.0958934 8.49864 0.287674C8.30766 0.383565 8.11668 0.479449 8.02119 0.67123C7.83021 0.863011 7.8302 0.958905 7.92569 0.958905C8.40314 1.0548 8.78511 1.24657 8.97609 1.53424L9.07159 1.72603C9.16708 1.82192 9.16706 2.01369 9.26255 2.30137C9.35804 2.58904 9.35804 2.87671 9.35804 3.26027C9.35804 3.83561 9.35804 4.41096 9.35804 4.79452C9.35804 5.27398 9.26255 5.56164 9.26255 5.84931C9.26255 6.13698 9.16708 6.32877 9.07159 6.42466C8.9761 6.61644 8.97608 6.71233 8.88059 6.71233C8.88059 6.71233 8.88059 6.80821 8.7851 6.80821C8.68961 6.80821 8.59412 6.90411 8.40314 6.90411C8.30765 6.90411 8.11668 6.80822 8.02119 6.71233C7.83021 6.61644 7.63923 6.42466 7.54374 6.23288C7.35276 6.0411 7.16177 5.75342 6.97079 5.36986C6.77981 4.9863 6.49333 4.60274 6.30235 4.0274L6.11138 3.64384C6.01589 3.45206 5.82491 3.06849 5.63393 2.58904C5.44295 2.10959 5.25197 1.72603 5.06099 1.24658C4.96549 1.0548 4.87002 0.958899 4.77453 0.863008H4.67903C4.67903 0.863008 4.58353 0.767127 4.48804 0.767127C4.39255 0.767127 4.29707 0.67123 4.20158 0.67123H0.763925C0.381964 0.67123 0.190986 0.767118 0.0954961 0.863008L0 0.958905C0 0.958905 0 1.05479 0 1.15068C0 1.24657 5.8272e-06 1.34246 0.0954961 1.53424C0.572947 2.68492 1.14589 3.83562 1.71883 4.9863C2.29177 6.0411 2.86472 7 3.24668 7.67124C3.72413 8.34247 4.10608 9.0137 4.58353 9.58905C5.06098 10.1644 5.34745 10.5479 5.44294 10.7397C5.63392 10.9315 5.7294 11.0274 5.82489 11.1233L6.11138 11.411C6.30236 11.6027 6.58883 11.8904 6.97079 12.1781C7.35275 12.4658 7.8302 12.7534 8.30765 13.0411C8.7851 13.3288 9.35805 13.5206 9.93099 13.7123C10.5994 13.9041 11.1724 14 11.7453 13.9041H13.1777C13.4641 13.9041 13.6551 13.8082 13.8461 13.6164L13.9416 13.5205C13.9416 13.4247 14.0371 13.4247 14.0371 13.3288C14.0371 13.2329 14.0371 13.137 14.0371 12.9452C14.0371 12.5617 14.0371 12.274 14.1326 11.9863C14.228 11.6986 14.2281 11.5069 14.3235 11.3151C14.419 11.1233 14.5145 11.0274 14.61 10.9315C14.7055 10.8356 14.801 10.7397 14.801 10.7397H14.8965C15.0874 10.6438 15.3739 10.7397 15.5649 10.9315C15.8514 11.1233 16.1378 11.411 16.3288 11.6986C16.5198 11.9863 16.8063 12.274 17.1883 12.6575C17.5702 13.0411 17.8567 13.3288 18.0477 13.4247L18.3341 13.6164C18.5251 13.7123 18.7161 13.8082 19.0026 13.9041C19.289 14 19.48 14 19.671 14L22.9177 13.9041C23.2041 13.9041 23.4906 13.8082 23.6816 13.7123C23.8726 13.6164 23.968 13.5205 23.968 13.3288C23.968 13.2329 23.968 13.0411 23.968 12.9452C23.7771 12.7534 23.7771 12.6575 23.7771 12.5616Z" fill="white"/>
</svg>
