<svg width="840" height="165" viewBox="0 0 840 165" fill="none" xmlns="http://www.w3.org/2000/svg">
<g filter="url(#filter0_d_123_772)">
<path d="M717.148 38.0726C725.155 38.0726 731.535 41.2718 736.283 47.6721C741.071 54.0725 743.467 62.6366 743.467 73.3608C743.467 82.4454 740.958 90.1195 735.941 96.3852C732.417 87.1933 729.515 78.7966 733.527 68.9932C734.117 67.4918 734.723 66.127 735.517 64.6383C734.252 65.6356 733.148 66.5947 732.023 67.8158C726.913 72.895 724.459 82.0486 725.479 89.9485C725.979 94.751 727.076 99.1641 728.313 103.344C724.077 106.041 719.357 107.393 714.146 107.393C707.826 107.393 702.801 105.892 699.073 102.891H698.602V121.495C698.602 123.128 699.014 124.673 699.838 126.128C700.662 127.586 702.685 128.602 705.904 129.175C709.121 129.794 710.987 130.125 711.496 130.168V135H668.928V130.168C674.11 129.639 677.131 128.733 677.995 127.453C678.858 126.174 679.288 124.496 679.29 122.421V54.6239C679.29 49.461 675.875 46.4802 669.044 45.6849V40.7859L697.776 39.1317L698.602 39.9907V47.2736L699.073 47.4083C704.842 41.1845 710.867 38.0726 717.148 38.0726ZM106.85 16.8189C106.3 16.9081 105.653 16.9954 104.907 17.0846C100.079 17.6578 97.1531 18.6059 96.1336 19.9307C95.1513 21.2101 94.6625 22.9771 94.6625 25.2282V92.4289C94.6625 97.0639 97.1936 99.3806 102.257 99.3806H107.792V129.042H103.317C102.1 124.23 99.9415 119.641 96.8408 115.271C93.7401 110.902 91.1297 108.141 89.0097 106.995C87.7102 106.305 85.6063 105.832 82.6982 105.573C83.2241 104.631 83.7194 103.692 84.1903 102.705C91.065 89.5554 89.602 71.2098 83.5058 58.1617C80.2238 50.1308 75.8203 43.3555 73.7003 36.1982V20.2729C74.1275 18.8262 74.5823 17.4813 75.194 16.0108C74.5127 16.6751 73.8832 17.3211 73.2779 18.0108H52.0939C50.9546 48.6002 44.046 75.5918 31.3679 98.9838H68.7563C72.0528 98.9838 73.7003 96.9311 73.7003 92.8274V60.5074C74.0531 61.3373 74.401 62.1579 74.7409 62.975C80.1752 75.3353 83.8359 87.4571 82.4312 102.121C82.3357 103.257 82.2224 104.372 82.0816 105.523C80.4779 105.401 78.6459 105.341 76.5874 105.341H45.2047C38.9239 105.341 34.6855 105.914 32.4878 107.062C30.329 108.21 27.7574 110.902 24.7748 115.138C21.8311 119.377 19.7305 124.01 18.4731 129.042H14V98.9838H22.3021C28.0326 89.2296 32.9588 77.4426 37.0806 63.6284C41.2398 49.7686 43.321 38.0944 43.321 28.6059C43.321 24.0581 42.515 21.1446 40.9064 19.8653C39.2962 18.5405 36.3929 17.6142 32.1933 17.0846C31.2903 16.9954 30.6041 16.9081 30.1331 16.8189V11.6542H106.85V16.8189ZM146.093 37.9398C155.434 37.9398 162.56 40.4565 167.466 45.4883C172.372 50.5201 174.825 57.4046 174.825 66.1452V70.5146H135.024C135.024 88.9203 141.5 98.1231 154.453 98.1231C161.165 98.1231 166.994 94.1067 171.941 86.074L176.414 89.7156C169.585 101.765 159.967 107.788 147.564 107.788C136.888 107.788 128.607 104.611 122.72 98.256C116.871 91.9012 113.947 83.3152 113.947 72.5018C113.947 62.8786 116.908 54.7112 122.836 48.0034C128.801 41.2937 136.555 37.9398 146.093 37.9398ZM627.363 37.9398C637.802 37.9398 646.124 41.0954 652.325 47.4083C658.528 53.6758 661.628 61.996 661.628 72.3672C661.628 82.7402 658.509 91.2369 652.267 97.8575C646.027 104.478 637.568 107.788 626.892 107.788C616.999 107.788 608.933 104.589 602.691 98.1887C596.491 91.7447 593.389 83.3134 593.389 72.8968C593.389 62.3491 596.47 53.8959 602.633 47.5393C608.836 41.139 617.078 37.9398 627.363 37.9398ZM788.094 37.9398C795.435 37.9398 801.184 39.5066 805.345 42.6422C809.506 45.7304 811.585 49.8578 811.587 55.0206C811.587 62.0834 808.248 65.6156 801.576 65.6156C798.789 65.6138 796.357 64.8422 794.276 63.2971C792.235 61.7521 791.214 59.6775 791.214 57.0734C791.214 54.8223 791.743 51.8195 792.803 48.0689C793.039 47.23 793.196 46.4801 793.274 45.8196C792.607 44.1854 791.038 43.3683 788.565 43.3683C784.6 43.3683 781.46 45.7959 779.144 50.6512C776.828 55.5065 775.67 62.5692 775.67 71.8376C775.67 79.5627 777.261 85.8538 780.439 90.7091C783.619 95.5626 787.584 97.9902 792.332 97.9921C799.789 97.9921 805.541 93.8411 809.584 85.5445L814 88.9203C811.252 94.9239 807.502 99.5808 802.754 102.891C798.004 106.158 792.803 107.788 787.152 107.788C776.828 107.788 768.781 104.654 763.011 98.3869C757.242 92.0758 754.356 83.4899 754.356 72.6328C754.356 63.1425 757.497 54.9988 763.778 48.2017C770.098 41.361 778.203 37.9398 788.094 37.9398ZM344.366 11.6542C343.637 12.4204 342.95 13.2047 342.271 14.1128C341.322 15.2702 340.503 16.5859 339.812 18.0108H321.095C319.955 47.4956 316.012 69.8067 309.26 84.9476C302.508 100.087 295.129 107.657 287.121 107.657C278.761 107.657 274.581 103.399 274.581 94.8802C274.581 90.8621 275.66 87.7064 277.819 85.4098C279.978 83.0713 282.706 81.903 286.003 81.903C289.811 81.903 293.873 84.7492 298.191 90.4434C302.194 83.2042 305.549 74.0669 308.258 63.0333C310.966 51.9543 312.322 41.0953 312.322 30.4585C312.322 25.2501 311.694 21.9617 310.438 20.5932C309.181 19.2247 306.119 18.0764 301.252 17.1501C300.429 17.0173 299.819 16.9081 299.427 16.8189V11.6542H344.366ZM553.296 15.1647C548.233 15.6506 545.074 16.4222 543.818 17.4813C542.601 18.4968 541.992 20.7479 541.992 24.2347H542.581C555.534 24.2347 565.583 27.2137 572.726 33.1718C579.869 39.1317 583.441 46.966 583.441 56.6766C583.441 67.4463 579.594 76.076 571.901 82.5637C564.207 89.0513 554.238 92.2979 541.992 92.2979V94.2159C541.992 97.1295 542.835 99.0494 544.523 99.9757C546.25 100.904 549.43 101.521 554.062 101.83V106.929H510.139V101.83C515.437 101.388 518.656 100.573 519.795 99.3806C520.933 98.1449 521.503 96.4234 521.503 94.2159V92.2979C508.941 92.2979 498.854 89.075 491.238 82.631C483.663 76.1433 479.876 67.4918 479.876 56.6766C479.876 47.0552 483.448 39.241 490.591 33.2392C497.7 27.2647 507.706 24.2638 520.608 24.2347C520.206 26.1783 519.993 28.1909 519.97 30.1946H519.559C514.181 30.1946 509.982 32.8188 506.959 38.0726C503.937 43.3246 502.426 50.0561 502.426 58.2653C502.426 66.3872 504.036 73.0751 507.255 78.3271C510.512 83.5791 515.222 86.2051 521.384 86.2051V40.089C523.05 46.5238 525.634 52.1325 527.874 57.5156C533.308 69.8758 536.969 81.9976 535.564 96.6618C535.428 98.2705 535.263 99.841 535.022 101.526C535.864 100.099 536.616 98.7237 537.323 97.246C544.198 84.096 542.735 65.7503 536.639 52.7022C531.127 39.2155 522.449 29.2737 526.744 15.1137C527.196 13.5505 527.673 12.1219 528.327 10.5514C527.16 11.6869 526.149 12.768 525.142 14.1128C523.464 16.1601 522.184 18.7042 521.317 21.4831C521.181 20.6296 520.97 19.9799 520.679 19.5341C520.129 18.6515 518.892 17.767 516.97 16.8844C515.086 15.9581 512.768 15.3849 510.022 15.1647V10H553.296V15.1647ZM224.189 44.6913C221.009 45.2663 218.949 46.1271 218.005 47.2736C217.063 48.4219 216.593 50.1889 216.593 52.5729V67.7994H238.497V52.5729C238.497 50.3655 238.082 48.6657 237.259 47.4738C236.433 46.2381 234.315 45.31 230.9 44.6913V39.9907H266.756V44.6913C265.618 44.8678 264.618 45.0024 263.754 45.0898C259.789 45.6194 257.807 47.8923 257.807 51.9087V93.5554C257.807 95.4971 258.221 97.1076 259.045 98.3869C259.868 99.6226 262.44 100.396 266.756 100.705V105.604H230.9V100.705C234.237 100.176 236.336 99.337 237.2 98.1887C238.063 97.0404 238.495 95.3206 238.497 93.0258V74.0233H216.593V93.0258C216.593 95.4534 217.063 97.2404 218.005 98.3869C218.988 99.4916 221.048 100.263 224.189 100.705V105.604H188.332V100.705C192.492 100.44 195.025 99.7118 195.928 98.5217C196.831 97.286 197.281 95.63 197.281 93.5554V51.9087C197.281 47.8923 195.299 45.6194 191.335 45.0898C190.471 45.0024 189.471 44.8678 188.332 44.6913V39.9907H224.189V44.6913ZM374.144 16.8189L372.26 17.0846C367.942 17.6142 365.154 18.4313 363.898 19.5341C362.642 20.6387 362.014 22.5367 362.014 25.2282V91.7683C362.014 94.2396 362.681 96.1595 364.016 97.528C365.39 98.851 368.766 99.8229 374.144 100.44V105.604H328.69V100.44C334.616 100.176 338.149 99.3588 339.288 97.9921C340.426 96.5781 340.994 94.7237 340.994 92.4289V47.7832C342.282 51.1808 343.701 54.3873 345.002 57.5156C350.437 69.8758 354.097 81.9976 352.693 96.6618C352.557 98.2705 352.392 99.841 352.151 101.526C352.992 100.099 353.745 98.7237 354.452 97.246C361.327 84.096 359.864 65.7503 353.767 52.7022C348.255 39.2155 339.578 29.2737 343.873 15.1137C344.216 13.9235 344.577 12.8116 345.017 11.6542H374.144V16.8189ZM423.506 44.6913C420.169 45.31 418.07 46.2164 417.206 47.4083C416.343 48.6003 415.91 50.3218 415.91 52.5729V83.7556L439.403 52.4383V52.1744C439.403 48.158 437.696 45.8414 434.281 45.2226C433.3 45.0461 432.397 44.8678 431.572 44.6913V39.9907H467.135V44.6913C465.995 44.8678 464.995 45.0024 464.131 45.0898C460.246 45.6194 458.303 47.8923 458.303 51.9087V93.5554C458.303 95.5408 458.715 97.1513 459.538 98.3869C460.364 99.6226 462.895 100.396 467.135 100.705V105.604H431.572V100.705C434.987 100.176 437.126 99.337 437.99 98.1887C438.853 96.9967 439.286 95.2769 439.286 93.0258V61.774L415.617 93.1568V93.2915C415.617 97.528 417.344 99.8665 420.797 100.309C421.818 100.442 422.721 100.573 423.506 100.705V105.604H387.885V100.705C392.046 100.44 394.578 99.7118 395.48 98.5217C396.383 97.286 396.834 95.63 396.834 93.5554V51.9087C396.834 47.8923 394.852 45.6194 390.889 45.0898C390.024 45.0024 389.023 44.8678 387.885 44.6913V39.9907H423.506V44.6913ZM627.481 43.3683C619.041 43.3683 614.822 52.9042 614.822 71.9723C614.822 82.873 615.861 90.6637 617.941 95.3424C620.022 100.019 623.202 102.361 627.481 102.361C635.919 102.361 640.138 92.3178 640.138 72.2361C640.138 52.9933 635.919 43.3683 627.481 43.3683ZM708.729 48.2673C704.45 48.2673 701.074 50.0343 698.602 53.5648V91.1041C700.799 97.9903 704.411 101.433 709.435 101.433C713.361 101.433 716.502 99.0731 718.857 94.3506C721.211 89.6264 722.388 82.7183 722.388 73.6265C722.388 65.7248 721.211 59.5229 718.857 55.0206C716.541 50.5184 713.165 48.2673 708.729 48.2673ZM542.109 86.2051C548.349 86.2051 553.062 83.5136 556.24 78.1287C559.459 72.7439 561.069 66.1233 561.069 58.2653C561.069 50.0561 559.558 43.3246 556.535 38.0726C553.512 32.8188 549.312 30.1946 543.934 30.1946H542.109V86.2051ZM145.151 43.3683C138.636 43.3683 135.26 50.5638 135.024 64.9514L153.982 64.6876C153.982 50.4747 151.039 43.3683 145.151 43.3683Z" fill="#00E3FA"/>
</g>
<defs>
<filter id="filter0_d_123_772" x="0" y="0" width="840" height="165" filterUnits="userSpaceOnUse" color-interpolation-filters="sRGB">
<feFlood flood-opacity="0" result="BackgroundImageFix"/>
<feColorMatrix in="SourceAlpha" type="matrix" values="0 0 0 0 0 0 0 0 0 0 0 0 0 0 0 0 0 0 127 0" result="hardAlpha"/>
<feOffset dx="6" dy="10"/>
<feGaussianBlur stdDeviation="10"/>
<feComposite in2="hardAlpha" operator="out"/>
<feColorMatrix type="matrix" values="0 0 0 0 0.181979 0 0 0 0 0.131769 0 0 0 0 0.0868438 0 0 0 0.5 0"/>
<feBlend mode="normal" in2="BackgroundImageFix" result="effect1_dropShadow_123_772"/>
<feBlend mode="normal" in="SourceGraphic" in2="effect1_dropShadow_123_772" result="shape"/>
</filter>
</defs>
</svg>
