<svg width="141" height="141" viewBox="0 0 141 141" fill="none" xmlns="http://www.w3.org/2000/svg">
<path d="M105.062 23.0535C105.062 23.0535 106.994 28.5295 106.262 30.6569C105.53 32.7837 104.997 32.7729 105.396 33.7491C105.795 34.7252 106.661 39.5478 106.926 40.3865C109.129 44.9181 109.932 46.254 104.759 48.4735C102.3 48.6086 103.647 50.14 105.306 48.767C105.904 48.1214 104.904 45.9336 102.862 45.5397C98.6188 44.6162 97.4869 47.4681 100.245 47.0795C101.537 46.3413 102.313 47.7407 103.477 47.1877C106.888 44.5791 98.8317 43.2461 97.9355 46.1984" stroke="#1C4824" stroke-opacity="0.5" stroke-miterlimit="10"/>
<path d="M103.35 49.0234C103.35 49.0234 102.323 49.5764 103.099 50.9865C103.777 52.2136 103.981 54.4994 103.353 55.7482C103.241 55.9705 103.08 55.4624 102.965 55.2377C102.689 54.5999 102.177 54.084 101.53 53.7905C100.799 53.4181 100.036 53.1061 99.2508 52.8568C98.2804 52.6052 97.2549 52.6357 96.3025 52.9441C95.4491 53.2902 94.5437 53.5006 93.6216 53.5681C93.0751 53.5681 92.8647 53.6345 93.8017 53.9465C94.7392 54.2586 95.7146 54.7589 97.9363 54.9627C100.079 55.1606 101.951 56.5922 102.276 57.3752" stroke="#1C4824" stroke-opacity="0.5" stroke-miterlimit="10"/>
<path d="M103.731 53.696C103.63 53.2094 103.423 52.7498 103.125 52.3469C102.638 51.7091 101.802 52.008 101.009 51.672C100.217 51.3361 100.438 50.8047 98.722 50.8047C97.0058 50.8047 96.3882 52.0665 94.9209 52.3361C93.3032 52.635 92.5624 52.2805 93.5953 51.614C93.9016 51.3893 94.2773 51.2727 94.661 51.2835" stroke="#1C4824" stroke-opacity="0.5" stroke-miterlimit="10"/>
<path d="M107.621 46.8794C107.621 54.8815 103.109 59.122 102.891 62.4873C102.53 68.0428 97.7475 68.9789 93.3888 65.8521C91.6647 64.6165 88.5518 64.265 88.5518 64.265" stroke="#1C4824" stroke-opacity="0.5" stroke-miterlimit="10"/>
<path d="M106.323 30.7063C108.206 30.934 108.723 31.2353 108.982 31.7171C109.242 32.1983 109.922 32.6902 110.324 32.4314" stroke="#1C4824" stroke-opacity="0.5" stroke-miterlimit="10"/>
<path d="M95.8906 70.823C114.952 127.334 56.5582 96.7822 106.581 95.8168C106.581 95.8168 126.804 95.8963 140.5 102.24" stroke="#1C4824" stroke-opacity="0.5" stroke-miterlimit="10"/>
<path d="M41.2303 111.954C43.2361 111.06 44.6517 108.854 44.209 107.457C43.6843 105.806 36.5381 108.42 35.9561 107.457C35.0871 106.036 55.0853 100.049 69.0471 99.2191C71.7522 99.0577 71.6377 97.1473 71.233 95.7796C66.47 80.143 56.8699 65.3576 60.9389 48.0144C60.6656 45.2444 65.4507 36.2369 59.8732 37.3613C57.8892 38.9907 59.4851 41.7422 62.002 41.0279C63.3684 40.4194 66.1995 40.9221 64.0133 42.2873C56.8781 46.636 54.6399 36.2399 58.1925 32.1076C62.1031 29.6341 64.7512 33.9804 63.1634 37.3774C62.8901 37.9805 63.5241 38.5837 64.0434 38.3637C64.732 38.0732 65.0736 36.5119 65.2185 35.9039C65.9207 32.9935 65.1584 29.2611 61.726 28.8349C60.182 28.6448 58.5614 28.753 57.1568 29.404C49.3466 33.0204 56.337 49.131 64.3412 47.5117C64.9686 47.3802 65.5752 47.1686 66.1448 46.8823C64.6937 54.9848 67.4839 62.0724 74.5259 66.7097C76.7124 68.1539 79.0956 69.3099 81.4702 70.4451C83.5936 71.4607 87.5945 72.8259 88.1954 75.2671C88.3186 75.8225 88.274 76.3999 88.0667 76.9313C87.3921 78.7831 85.1593 79.8411 83.1696 79.4998C81.1806 79.1585 79.5542 77.5823 78.9038 75.7328" stroke="#1C4824" stroke-opacity="0.5" stroke-miterlimit="10"/>
<path d="M82.6523 57.9963C91.5801 65.3875 102.003 59.8296 101.681 64.2154C101.15 67.9716 96.9964 68.2627 91.7465 75.8052C87.2814 82.2149 79.2993 111.954 75.5391 96.3966C74.2847 91.22 72.7598 82.1384 72.7598 82.1384" stroke="#1C4824" stroke-opacity="0.5" stroke-miterlimit="10"/>
<path d="M36.2614 140.5C-3.06359 140.5 29.4601 107.454 35.3212 117.727C46.4592 137.247 -31.5209 135.512 15.9924 104.171C24.5014 99.4227 29.5266 100.117 37.5525 96.4714C54.3949 88.823 58.9211 92.7306 59.2231 68.2419" stroke="#1C4824" stroke-opacity="0.5" stroke-miterlimit="10"/>
<path d="M106.819 39.9091C112.916 40.703 113.809 34.4463 114.178 30.2483C115.774 29.4784 117.359 28.4413 117.493 26.5846C116.947 24.0131 116.849 20.5557 115.22 18.1641C114.933 18.2436 114.673 16.2357 115.127 15.9315C116.766 13.146 114.769 12.0957 113.782 10.04C112.82 7.42607 113.17 4.30998 111.577 1.95842C107.642 0.37079 102.78 0.281128 98.7988 2.072C95.2626 3.04035 92.2178 -0.888075 88.8592 1.04028C86.8015 5.52163 83.6044 -0.546756 81.0491 1.83409C78.4121 4.58495 75.5239 3.08519 72.8894 3.66441C70.2549 4.24363 64.691 3.88438 62.1195 6.31006C59.5479 8.73574 54.312 6.89705 53.1751 13.201C51.6803 21.4972 47.9283 19.8145 47.5429 24.407C46.9745 31.2112 40.5798 35.7823 45.3184 39.8697C48.7918 42.8722 49.822 47.5066 46.7668 52.6736C43.5121 58.1759 46.4088 65.7548 51.0791 68.8105C54.6317 71.1411 52.0656 76.384 58.3865 80.4051" stroke="#1C4824" stroke-opacity="0.5" stroke-miterlimit="10"/>
<path d="M70.1828 40.455C66.6711 44.5448 67.3187 38.1721 67.6686 35.8206C69.2917 28.9082 70.587 34.6538 72.9046 32.4684C72.8173 29.6775 70.3685 27.1514 71.3358 24.4346C72.4287 26.7915 73.3063 32.3076 75.6839 25.7574C76.564 23.2839 77.4384 27.5614 79.1273 26.088C81.3843 24.752 77.8562 21.7549 82.3596 22.6013C85.0022 23.0616 90.3015 22.6862 91.0033 19.7255C90.4841 16.8742 94.7883 19.2784 95.7123 16.9932C98.6717 18.6836 101.451 18.3477 104.82 18.0249C107.466 18.588 105.323 22.7334 108.963 21.8051C110.952 22.3341 108.879 24.2469 108.608 25.3551C107.977 28.0008 111.756 30.072 110.521 32.1593C109.182 33.9155 109.507 35.2623 108.958 36.8099C108.365 37.8416 106.591 38.413 106.826 39.902" stroke="#1C4824" stroke-opacity="0.5" stroke-miterlimit="10"/>
<path d="M97.0658 34.5058C97.106 34.4956 97.1419 34.4741 97.1692 34.4436C97.1964 34.4131 97.2131 34.376 97.218 34.336C97.223 34.2959 97.2156 34.2559 97.197 34.22C97.1778 34.1842 97.1487 34.1549 97.1122 34.1358C96.9074 34.0246 96.0577 33.8524 95.9754 33.4561C95.7594 32.4136 96.2706 31.6043 95.3088 30.7046C94.4888 29.9108 93.1824 29.3818 92.6143 30.4243C92.0456 31.4662 92.9336 34.4107 94.4288 33.9666C95.6746 33.5936 95.2073 31.1595 94.2184 30.6491C92.1167 29.5695 87.5365 31.3819 85.9572 31.8392C85.9058 31.8517 85.8606 31.8798 85.8284 31.9199C85.7963 31.9599 85.7783 32.0095 85.7783 32.0604C85.7783 32.1112 85.7963 32.1608 85.8284 32.2008C85.8606 32.2409 85.9058 32.269 85.9572 32.2815C86.7332 32.4585 89.2093 32.5643 90.1135 33.0323C92.032 34.1196 94.4505 35.1513 97.0658 34.5058Z" stroke="#1C4824" stroke-opacity="0.5" stroke-miterlimit="10"/>
<path d="M97.2175 33.3252C96.8079 32.0849 96.9743 30.0477 95.5367 29.2276C94.0997 28.4075 93.3837 28.4816 86.2754 30.569" stroke="#1C4824" stroke-opacity="0.5" stroke-miterlimit="10"/>
<path d="M88.0469 34.319C90.7798 34.2557 90.6839 36.2002 94.6056 36.1948C97.9753 36.1948 100.44 35.5331 101.437 32.4911C101.891 31.1258 102.913 30.1497 104.673 30.5227" stroke="#1C4824" stroke-opacity="0.5" stroke-miterlimit="10"/>
<path d="M87.1918 25.1072C87.383 25.0354 92.4713 22.9642 93.9801 23.0515C95.4883 23.1388 97.3467 24.3982 99.1557 25.1072C100.965 25.8161 102.435 25.9644 102.875 26.6942C103.315 27.4247 103.227 28.7337 102.875 29.0039C102.522 29.2735 102.02 28.784 100.713 27.9591C99.4069 27.1336 96.9395 27.0331 95.6851 26.4007C94.4306 25.7683 94.1299 25.3798 92.5722 25.4772C91.0145 25.5752 90.6593 25.3714 90.1592 25.1096C89.6592 24.8478 87.8118 25.7205 87.4269 25.7683C87.0414 25.8161 85.9509 25.5645 87.1918 25.1072Z" stroke="#1C4824" stroke-opacity="0.5" stroke-miterlimit="10"/>
<path d="M110.74 31.6077C110.324 29.613 107.778 29.6525 106.504 29.613" stroke="#1C4824" stroke-opacity="0.5" stroke-miterlimit="10"/>
<path d="M109.417 34.7142C109.417 34.7142 108.554 31.4786 106.018 31.6005" stroke="#1C4824" stroke-opacity="0.5" stroke-miterlimit="10"/>
<path d="M105.677 34.7122C105.712 34.8526 106.923 35.0218 107.712 36.194" stroke="#1C4824" stroke-opacity="0.5" stroke-miterlimit="10"/>
</svg>

