<svg width="60" height="60" viewBox="0 0 60 60" fill="none" xmlns="http://www.w3.org/2000/svg">
<rect width="60" height="60" rx="30" fill="#2F89CE"/>
<path d="M13.1137 29.2997L21.1604 32.7394L24.2972 44.309C24.4336 45.0908 25.2519 45.2471 25.7974 44.7781L30.2981 40.5567C30.7072 40.0877 31.3892 40.0877 31.9347 40.5567L39.9813 47.2796C40.5269 47.7487 41.3452 47.436 41.4816 46.6542L47.4824 13.8214C47.6188 13.0396 46.9369 12.2579 46.255 12.5706L13.1137 27.2672C12.2954 27.5799 12.2954 28.987 13.1137 29.2997ZM23.8881 31.0195L39.7086 19.9189C39.9813 19.7626 40.2541 20.2316 39.9813 20.3879L27.0249 34.3028C26.6157 34.7719 26.2066 35.3973 26.2066 36.179L25.7974 39.9313C25.7974 40.4004 25.1155 40.5567 24.9791 39.9313L23.3425 33.0521C22.9334 32.2703 23.2062 31.3322 23.8881 31.0195Z" fill="white"/>
</svg>
