<svg width="142" height="141" viewBox="0 0 142 141" fill="none" xmlns="http://www.w3.org/2000/svg">
<path d="M56.7129 56.4498C58.3173 55.8416 60.5921 56.3201 62.233 56.5878C64.2176 56.9098 66.1608 57.4538 68.0262 58.2098C68.3797 58.3558 68.785 58.5788 68.8288 58.9641C68.8653 59.4263 68.3432 59.7102 67.9062 59.8521C65.3363 60.6949 62.644 61.0939 59.9428 61.0322C56.7729 60.9633 53.6477 60.2618 50.4859 60.0306C48.079 59.8521 45.5472 59.9697 43.3607 61.0363C41.3113 62.0541 39.7061 63.806 38.43 65.7281C37.2707 67.5083 35.9152 69.6576 35.2205 71.6649C36.0231 70.8011 37.4272 70.4767 38.5103 70.1766C40.6019 69.6248 42.7219 69.1915 44.8613 68.879C50.1414 68.0396 55.4774 67.5083 60.8094 67.1637C63.008 67.0217 65.222 66.9082 67.4085 66.896C68.464 66.896 70.1008 66.6649 71.0996 67.1231C71.1961 67.1677 71.4247 67.2001 71.4247 67.3462C71.4247 68.883 60.4964 69.4954 55.6379 69.8036C50.7794 70.1117 35.2967 73.9439 33.929 77.1675C32.5606 80.392 37.1386 93.7414 37.1386 93.7414C36.8338 87.1392 43.3607 86.373 47.4612 83.1535C51.5617 79.9331 67.3485 75.785 69.0177 78.6925C70.6861 81.5999 63.706 84.8317 55.2042 87.7481C46.7032 90.6636 41.9931 98.49 40.1714 101.406C38.3498 104.321 54.6148 127.335 57.0218 130.25C59.4287 133.166 55.2002 137.619 55.959 139.613C56.717 141.609 57.9322 139.613 57.9322 139.613C66.1292 133.628 86.1688 135.315 86.1688 135.315C86.1688 135.315 89.8113 126.568 86.1688 115.06C82.5256 103.551 82.2208 99.7142 83.89 97.7197C85.5592 95.7244 86.0165 96.0325 93.92 108.616C101.823 121.199 92.8563 133.012 92.8563 133.012C96.0424 133.012 116.082 117.363 114.565 112.91C113.049 108.458 96.652 89.1263 96.652 89.1263C96.652 89.1263 82.3813 77.3134 96.652 81.6081C110.923 85.9027 112.591 122.732 112.591 122.732C114.565 122.273 125.342 108.77 128.988 101.239C132.635 93.7086 102.722 72.3907 103.633 70.3956C104.543 68.4005 116.992 77.456 121.093 79.7553C125.193 82.0546 126.489 82.3464 131.051 87.975C132.908 90.2703 133.859 94.4871 133.859 94.4871C139.327 89.1141 140.085 76.6852 138.272 73.4654C136.459 70.2456 111.248 64.4102 110.946 62.269C110.645 60.128 113.221 61.8027 116.106 61.6486C118.991 61.4945 124.932 62.2609 132.956 65.1766C140.98 68.0923 139.776 72.5449 139.776 72.5449C139.776 72.5449 142.813 70.5497 137.956 57.5042C136.478 53.5463 131.765 52.346 128.046 51.8999C122.505 51.2349 116.812 51.8716 111.324 52.7677C106.423 53.5217 101.583 54.633 96.8409 56.093C95.3962 56.5431 92.7923 57.1677 91.4887 57.9705C89.9962 58.887 89.3987 61.0646 88.6123 62.634C87.376 65.1157 86.8263 68.1653 86.0399 70.8133C84.4356 76.2513 73.7879 107.906 71.766 113.206C67.7538 123.709 66.2054 130.359 64.3432 129.755C60.5767 128.539 86.2289 58.2504 86.3415 56.8918C86.4899 55.0508 86.4818 47.1878 83.2041 45.2373C79.9257 43.2867 80.5758 41.101 87.9661 42.204C95.3557 43.3071 98.5693 37.7879 99.8575 33.1528C101.146 28.5178 96.9009 22.7797 94.8425 21.0238C92.7842 19.2679 93.4943 18.0351 90.7947 13.7488C89.1709 11.1797 86.8199 9.1646 84.0464 7.96609C86.5499 9.39756 85.9719 14.0083 86.4218 16.8024C86.8709 19.5964 84.4956 27.5202 82.181 23.1041C79.8657 18.688 84.5596 12.7756 83.0152 7.57678C81.4708 2.37807 66.2411 2.5119 66.2411 2.5119C67.766 2.64977 71.3201 8.03099 72.7323 11.4089C74.1446 14.7869 73.9362 23.9476 72.4113 24.6654C70.8872 25.3831 70.1608 17.581 70.0968 15.6344C70.0327 13.6879 68.6205 5.43159 63.9906 1.72925C59.3607 -1.97313 46.1852 3.87442 48.6927 3.80952C48.8078 3.80149 48.9229 3.80149 49.038 3.80952C51.509 4.0488 54.7591 7.38618 56.6002 9.12592C58.5264 10.9426 64.3116 28.096 62.4502 29.4018C60.5881 30.7075 58.9156 23.1 57.4352 19.3328C55.9549 15.5655 54.9918 12.5769 47.9865 4.38944C40.9821 -3.79797 28.8735 5.1924 28.8735 5.1924C33.7564 5.78034 41.8568 17.0173 44.2995 19.0327C46.7429 21.0482 50.5346 29.9452 50.6627 30.3872C50.7916 30.8292 49.0583 37.7311 41.792 26.2956C34.5265 14.8599 25.4037 10.7682 23.7945 10.6385C22.186 10.5087 13.1265 16.0967 13.1265 16.0967C15.8269 15.5128 19.7467 17.7837 26.623 22.658C33.4994 27.5323 32.3441 30.7116 31.4378 31.8187C30.5306 32.9257 25.9728 30.5818 20.8298 28.5746C15.6867 26.5672 8.48928 27.731 8.48928 27.731C5.46781 30.521 0.713867 43.0597 0.713867 43.0597C3.92343 43.1894 9.32754 55.0144 13.2473 55.4685C16.1236 55.8051 19.3016 54.2965 21.9007 53.2341C24.649 52.1103 27.2659 50.6837 29.7045 48.9802C32.156 47.273 34.3619 45.2575 36.9262 43.7085C37.5755 43.2696 38.2922 42.9434 39.0478 42.7434C39.5415 42.6379 40.216 42.7434 40.2995 43.2543C40.3149 43.4591 40.2663 43.6634 40.1592 43.8382C39.1686 45.8658 36.4406 47.9664 34.2703 48.4044C32.019 48.8585 29.6404 52.0541 24.6935 55.4036C19.7467 58.7532 15.1167 56.7824 15.1167 56.7824C16.9822 57.3015 22.6392 60.0955 29.9615 61.3283C34.3425 62.0663 38.3344 59.7832 41.6639 57.1636C43.8025 55.4807 46.0246 53.8708 47.8982 51.8918C49.2869 50.4158 50.3457 48.6802 51.5893 47.0864C51.9671 46.6039 53.295 44.5804 54.1292 45.0386C55.5415 45.8171 53.3591 49.4547 45.5796 56.4377C37.8001 63.4208 31.7628 61.4742 31.7628 61.4742C31.7628 61.4742 32.0831 61.4742 39.4094 64.4629C46.7348 67.4515 54.8994 64.917 57.1499 63.1653C59.4012 61.4134 65.9119 52.6218 71.192 51.7499C72.1989 51.5795 79.7935 51.1619 81.6873 53.8708C85.2017 58.9032 94.4899 54.3939 95.3881 52.5731C96.2872 50.7523 92.1105 49.0654 90.8904 50.6915C89.6711 52.3176 94.2969 59.2682 96.7404 53.7166C99.1838 48.1651 92.8847 47.7677 91.4684 48.4044C90.0521 49.041 89.346 49.848 86.0043 49.7831C82.1486 49.7061 79.5009 47.1149 76.1632 45.6671C75.0963 45.2449 73.9922 44.9272 72.8653 44.7182C65.5593 43.2381 58.3335 41.3159 50.9675 40.1277C28.5006 36.5024 15.4978 39.2883 15.8512 37.4432C16.2525 36.1659 19.4621 36.3524 20.5646 36.251C24.3563 35.9023 37.295 36.0077 50.3019 37.062C59.3047 37.8001 69.3704 39.4343 74.7745 41.7741" stroke="white" stroke-miterlimit="10"/>
</svg>

