<svg width="60" height="60" viewBox="0 0 60 60" fill="none" xmlns="http://www.w3.org/2000/svg">
<rect width="60" height="60" rx="30" fill="#48C95F"/>
<path d="M42.378 17.6042C39.0854 14.3229 34.6951 12.5 30.061 12.5C20.4268 12.5 12.6219 20.2778 12.6219 29.8785C12.6219 32.9167 13.4756 35.9549 14.939 38.5069L12.5 47.5L21.7683 45.0694C24.3293 46.4062 27.1341 47.1354 30.061 47.1354C39.6951 47.1354 47.5 39.3576 47.5 29.7569C47.378 25.2604 45.6707 20.8854 42.378 17.6042ZM38.4756 36.0764C38.1098 37.0486 36.4024 38.0208 35.5488 38.1424C34.8171 38.2639 33.8415 38.2639 32.8659 38.0208C32.2561 37.7778 31.4024 37.5347 30.4268 37.0486C26.0366 35.2257 23.2317 30.8507 22.9878 30.4861C22.7439 30.2431 21.1585 28.1771 21.1585 25.9896C21.1585 23.8021 22.2561 22.8299 22.6219 22.3437C22.9878 21.8576 23.4756 21.8576 23.8415 21.8576C24.0854 21.8576 24.4512 21.8576 24.6951 21.8576C24.939 21.8576 25.3049 21.7361 25.6707 22.5868C26.0366 23.4375 26.8902 25.625 27.0122 25.7465C27.1341 25.9896 27.1341 26.2326 27.0122 26.4757C26.8902 26.7187 26.7683 26.9618 26.5244 27.2049C26.2805 27.4479 26.0366 27.8125 25.9146 27.934C25.6707 28.1771 25.4268 28.4201 25.6707 28.7847C25.9146 29.2708 26.7683 30.6076 28.1098 31.8229C29.8171 33.2812 31.1585 33.7674 31.6463 34.0104C32.1341 34.2535 32.378 34.1319 32.6219 33.8889C32.8658 33.6458 33.7195 32.6736 33.9634 32.1875C34.2073 31.7014 34.5732 31.8229 34.939 31.9444C35.3049 32.066 37.5 33.1597 37.8659 33.4028C38.3537 33.6458 38.5976 33.7674 38.7195 33.8889C38.8415 34.2535 38.8415 35.1042 38.4756 36.0764Z" fill="white"/>
</svg>
