<svg width="57" height="53" viewBox="0 0 57 53" fill="none" xmlns="http://www.w3.org/2000/svg">
<path d="M0 1.875C0 1.37772 0.197544 0.900806 0.549175 0.549175C0.900806 0.197544 1.37772 0 1.875 0H7.5C7.91824 0.000115543 8.32444 0.140065 8.65399 0.397593C8.98355 0.65512 9.21754 1.01544 9.31875 1.42125L10.8375 7.5H54.375C54.6598 7.50008 54.9409 7.56504 55.1968 7.68995C55.4528 7.81486 55.6769 7.99644 55.8522 8.2209C56.0275 8.44536 56.1494 8.70681 56.2086 8.9854C56.2677 9.264 56.2627 9.55241 56.1937 9.82875L50.5687 32.3288C50.4675 32.7346 50.2335 33.0949 49.904 33.3524C49.5744 33.6099 49.1682 33.7499 48.75 33.75H15C14.5818 33.7499 14.1756 33.6099 13.846 33.3524C13.5165 33.0949 13.2825 32.7346 13.1813 32.3288L6.0375 3.75H1.875C1.37772 3.75 0.900806 3.55246 0.549175 3.20082C0.197544 2.84919 0 2.37228 0 1.875ZM11.775 11.25L13.65 18.75H18.75V11.25H11.775ZM22.5 11.25V18.75H30V11.25H22.5ZM33.75 11.25V18.75H41.25V11.25H33.75ZM45 11.25V18.75H50.1L51.975 11.25H45ZM49.1625 22.5H45V30H47.2875L49.1625 22.5ZM41.25 22.5H33.75V30H41.25V22.5ZM30 22.5H22.5V30H30V22.5ZM18.75 22.5H14.5875L16.4625 30H18.75V22.5ZM18.75 41.25C17.7554 41.25 16.8016 41.6451 16.0984 42.3484C15.3951 43.0516 15 44.0054 15 45C15 45.9946 15.3951 46.9484 16.0984 47.6516C16.8016 48.3549 17.7554 48.75 18.75 48.75C19.7446 48.75 20.6984 48.3549 21.4016 47.6516C22.1049 46.9484 22.5 45.9946 22.5 45C22.5 44.0054 22.1049 43.0516 21.4016 42.3484C20.6984 41.6451 19.7446 41.25 18.75 41.25ZM11.25 45C11.25 43.0109 12.0402 41.1032 13.4467 39.6967C14.8532 38.2902 16.7609 37.5 18.75 37.5C20.7391 37.5 22.6468 38.2902 24.0533 39.6967C25.4598 41.1032 26.25 43.0109 26.25 45C26.25 46.9891 25.4598 48.8968 24.0533 50.3033C22.6468 51.7098 20.7391 52.5 18.75 52.5C16.7609 52.5 14.8532 51.7098 13.4467 50.3033C12.0402 48.8968 11.25 46.9891 11.25 45ZM45 41.25C44.0054 41.25 43.0516 41.6451 42.3484 42.3484C41.6451 43.0516 41.25 44.0054 41.25 45C41.25 45.9946 41.6451 46.9484 42.3484 47.6516C43.0516 48.3549 44.0054 48.75 45 48.75C45.9946 48.75 46.9484 48.3549 47.6516 47.6516C48.3549 46.9484 48.75 45.9946 48.75 45C48.75 44.0054 48.3549 43.0516 47.6516 42.3484C46.9484 41.6451 45.9946 41.25 45 41.25ZM37.5 45C37.5 43.0109 38.2902 41.1032 39.6967 39.6967C41.1032 38.2902 43.0109 37.5 45 37.5C46.9891 37.5 48.8968 38.2902 50.3033 39.6967C51.7098 41.1032 52.5 43.0109 52.5 45C52.5 46.9891 51.7098 48.8968 50.3033 50.3033C48.8968 51.7098 46.9891 52.5 45 52.5C43.0109 52.5 41.1032 51.7098 39.6967 50.3033C38.2902 48.8968 37.5 46.9891 37.5 45Z" fill="#2E2216"/>
</svg>
