<svg width="19" height="23" viewBox="0 0 19 23" fill="none" xmlns="http://www.w3.org/2000/svg">
<path d="M14 9.25037C14 10.4723 10.9779 11.463 7.25 11.463C3.52208 11.463 0.5 10.4723 0.5 9.25037M14 9.25037C14 8.02839 10.9779 7.03778 7.25 7.03778C3.52208 7.03778 0.5 8.02839 0.5 9.25037M14 9.25037V13.6755M0.5 9.25037V13.6755C0.5 14.8975 3.52208 15.8881 7.25 15.8881C10.9779 15.8881 14 14.8975 14 13.6755M18.5 15.7622C18.5 16.9842 15.4779 17.9748 11.75 17.9748C8.02208 17.9748 5 16.9842 5 15.7622V20.1874C5 21.4094 8.02208 22.4 11.75 22.4C15.4779 22.4 18.5 21.4094 18.5 20.1874V15.7622ZM18.5 15.7622C18.5 14.7989 16.6217 13.9793 14 13.6755" stroke="#2E2216"/>
<path d="M15.6875 0.400024V5.93149M18.5 3.16576L12.875 3.16576" stroke="#2E2216" stroke-width="0.8" stroke-linecap="round"/>
</svg>
