<svg width="22" height="23" viewBox="0 0 22 23" fill="none" xmlns="http://www.w3.org/2000/svg">
<path d="M15.75 6.07071C15.75 7.07627 12.8958 7.89143 9.375 7.89143C5.85418 7.89143 3 7.07627 3 6.07071M15.75 6.07071C15.75 5.06516 12.8958 4.25 9.375 4.25C5.85418 4.25 3 5.06516 3 6.07071M15.75 6.07071V9.71214M3 6.07071V9.71214C3 10.7177 5.85418 11.5329 9.375 11.5329C12.8958 11.5329 15.75 10.7177 15.75 9.71214M20 11.4293C20 12.4348 17.1458 13.25 13.625 13.25C10.1042 13.25 7.25 12.4348 7.25 11.4293V15.0707M20 11.4293C20 10.6365 18.226 9.96209 15.75 9.71214M20 11.4293V15.0707C20 16.0763 17.1458 16.8914 13.625 16.8914C10.1042 16.8914 7.25 16.0763 7.25 15.0707M3 16.7878C3 17.7934 5.85418 18.6085 9.375 18.6085C12.8958 18.6085 15.75 17.7934 15.75 16.7878V20.4293C15.75 21.4348 12.8958 22.25 9.375 22.25C5.85418 22.25 3 21.4348 3 20.4293V16.7878ZM3 16.7878C3 15.9951 4.77397 15.3207 7.25 15.0707" stroke="#2E2216"/>
<path d="M17.875 0.25V4.83333M20.1667 2.54167L15.5834 2.54167" stroke="#2E2216" stroke-width="0.5" stroke-linecap="round"/>
</svg>
