<svg width="22" height="18" viewBox="0 0 22 18" fill="none" xmlns="http://www.w3.org/2000/svg">
<g clip-path="url(#clip0_123_5700)">
<path d="M15.8888 3.375C15.8888 4.61764 12.6056 5.625 8.5555 5.625C4.50541 5.625 1.22217 4.61764 1.22217 3.375M15.8888 3.375C15.8888 2.13236 12.6056 1.125 8.5555 1.125C4.50541 1.125 1.22217 2.13236 1.22217 3.375M15.8888 3.375V7.875M1.22217 3.375V7.875C1.22217 9.11764 4.50541 10.125 8.5555 10.125C12.6056 10.125 15.8888 9.11764 15.8888 7.875M20.7777 9.99697C20.7777 11.2396 17.4945 12.247 13.4444 12.247C9.3943 12.247 6.11106 11.2396 6.11106 9.99697V14.497C6.11106 15.7396 9.3943 16.747 13.4444 16.747C17.4945 16.747 20.7777 15.7396 20.7777 14.497V9.99697ZM20.7777 9.99697C20.7777 9.01731 18.7371 8.18388 15.8888 7.875" stroke="#2E2216"/>
</g>
<defs>
<clipPath id="clip0_123_5700">
<rect width="22" height="18" fill="white"/>
</clipPath>
</defs>
</svg>
