<svg width="30" height="30" viewBox="0 0 30 30" fill="none" xmlns="http://www.w3.org/2000/svg">
<path d="M6.80252 20.8565L6.51017 21.5472H6.51017L6.80252 20.8565ZM6.80252 11.6435L7.09487 12.3341V12.3341L6.80252 11.6435ZM7.73723 11.4783L7.59489 12.2147H7.59489L7.73723 11.4783ZM8.53773 12.0087L9.16036 11.5906V11.5906L8.53773 12.0087ZM7.73723 21.0217L7.59489 20.2853H7.59489L7.73723 21.0217ZM8.53773 20.4913L7.91509 20.0732H7.91509L8.53773 20.4913ZM23.1975 20.8565L23.4898 21.5472V21.5472L23.1975 20.8565ZM23.1975 11.6435L22.9051 12.3341V12.3341L23.1975 11.6435ZM22.2628 11.4783L22.4051 12.2147V12.2147L22.2628 11.4783ZM21.4623 12.0087L20.8396 11.5906V11.5906L21.4623 12.0087ZM22.2628 21.0217L22.4051 20.2853V20.2853L22.2628 21.0217ZM21.4623 20.4913L22.0849 20.0732V20.0732L21.4623 20.4913ZM24.5 21.25C24.5 20.8358 24.1642 20.5 23.75 20.5C23.3358 20.5 23 20.8358 23 21.25H23.75H24.5ZM15 24.25C14.5858 24.25 14.25 24.5858 14.25 25C14.25 25.4142 14.5858 25.75 15 25.75V25V24.25ZM6.80252 20.8565L7.09487 20.1659C5.56856 19.5198 4.5 18.0088 4.5 16.25H3.75H3C3 18.6323 4.44867 20.6746 6.51017 21.5472L6.80252 20.8565ZM3.75 16.25H4.5C4.5 14.4912 5.56856 12.9802 7.09487 12.3341L6.80252 11.6435L6.51017 10.9528C4.44867 11.8254 3 13.8677 3 16.25H3.75ZM8.75 19.25H9.5V13.25H8.75H8V19.25H8.75ZM6.80252 11.6435L7.09487 12.3341C7.30061 12.247 7.37158 12.2199 7.4295 12.2073C7.45565 12.2016 7.49191 12.1948 7.59489 12.2147L7.73723 11.4783L7.87957 10.7419C7.60872 10.6896 7.36457 10.6862 7.11031 10.7416C6.88781 10.7901 6.67835 10.8816 6.51017 10.9528L6.80252 11.6435ZM8.75 13.25H9.5C9.5 12.694 9.52395 12.132 9.16036 11.5906L8.53773 12.0087L7.91509 12.4268C7.94734 12.4749 7.9667 12.5184 7.9804 12.6184C7.99844 12.7501 8 12.9229 8 13.25H8.75ZM7.73723 11.4783L7.59489 12.2147C7.58201 12.2122 7.59577 12.2136 7.63654 12.2324C7.67384 12.2496 7.71873 12.2745 7.76522 12.3053C7.8117 12.3361 7.85212 12.3678 7.88252 12.3954C7.91575 12.4256 7.92241 12.4377 7.91509 12.4268L8.53773 12.0087L9.16036 11.5906C9.00917 11.3655 8.78346 11.1806 8.59375 11.0549C8.40404 10.9292 8.14584 10.7934 7.87957 10.7419L7.73723 11.4783ZM6.80252 20.8565L6.51017 21.5472C6.67835 21.6184 6.88781 21.7099 7.11031 21.7584C7.36458 21.8138 7.60872 21.8104 7.87958 21.7581L7.73723 21.0217L7.59489 20.2853C7.49191 20.3052 7.45565 20.2984 7.4295 20.2927C7.37158 20.2801 7.3006 20.253 7.09487 20.1659L6.80252 20.8565ZM8.75 19.25H8C8 19.5771 7.99844 19.7499 7.9804 19.8816C7.9667 19.9816 7.94734 20.0251 7.91509 20.0732L8.53773 20.4913L9.16036 20.9094C9.52395 20.368 9.5 19.806 9.5 19.25H8.75ZM7.73723 21.0217L7.87957 21.7581C8.14584 21.7066 8.40404 21.5708 8.59375 21.4451C8.78346 21.3194 9.00917 21.1345 9.16036 20.9094L8.53773 20.4913L7.91509 20.0732C7.92241 20.0623 7.91575 20.0744 7.88252 20.1046C7.85212 20.1322 7.8117 20.1639 7.76522 20.1947C7.71873 20.2255 7.67384 20.2504 7.63654 20.2676C7.59577 20.2864 7.58201 20.2878 7.59489 20.2853L7.73723 21.0217ZM23.1975 20.8565L23.4898 21.5472C25.5513 20.6746 27 18.6323 27 16.25H26.25H25.5C25.5 18.0088 24.4314 19.5198 22.9051 20.1659L23.1975 20.8565ZM26.25 16.25H27C27 13.8677 25.5513 11.8254 23.4898 10.9528L23.1975 11.6435L22.9051 12.3341C24.4314 12.9802 25.5 14.4912 25.5 16.25H26.25ZM21.25 19.25H22V13.25H21.25H20.5V19.25H21.25ZM23.1975 11.6435L23.4898 10.9528C23.3217 10.8816 23.1122 10.7901 22.8897 10.7416C22.6354 10.6862 22.3913 10.6896 22.1204 10.7419L22.2628 11.4783L22.4051 12.2147C22.5081 12.1948 22.5444 12.2016 22.5705 12.2073C22.6284 12.2199 22.6994 12.247 22.9051 12.3341L23.1975 11.6435ZM21.25 13.25H22C22 12.9229 22.0016 12.7501 22.0196 12.6184C22.0333 12.5184 22.0527 12.4749 22.0849 12.4268L21.4623 12.0087L20.8396 11.5906C20.476 12.132 20.5 12.694 20.5 13.25H21.25ZM22.2628 11.4783L22.1204 10.7419C21.8542 10.7934 21.596 10.9292 21.4062 11.0549C21.2165 11.1806 20.9908 11.3655 20.8396 11.5906L21.4623 12.0087L22.0849 12.4268C22.0776 12.4377 22.0842 12.4256 22.1175 12.3954C22.1479 12.3678 22.1883 12.3361 22.2348 12.3053C22.2813 12.2745 22.3262 12.2496 22.3635 12.2324C22.4042 12.2136 22.418 12.2122 22.4051 12.2147L22.2628 11.4783ZM23.1975 20.8565L22.9051 20.1659C22.6994 20.253 22.6284 20.2801 22.5705 20.2927C22.5444 20.2984 22.5081 20.3052 22.4051 20.2853L22.2628 21.0217L22.1204 21.7581C22.3913 21.8104 22.6354 21.8138 22.8897 21.7584C23.1122 21.7099 23.3217 21.6184 23.4898 21.5472L23.1975 20.8565ZM21.25 19.25H20.5C20.5 19.806 20.476 20.368 20.8396 20.9094L21.4623 20.4913L22.0849 20.0732C22.0527 20.0251 22.0333 19.9816 22.0196 19.8816C22.0016 19.7499 22 19.5771 22 19.25H21.25ZM22.2628 21.0217L22.4051 20.2853C22.418 20.2878 22.4042 20.2864 22.3635 20.2676C22.3262 20.2504 22.2813 20.2255 22.2348 20.1947C22.1883 20.1639 22.1479 20.1322 22.1175 20.1046C22.0842 20.0744 22.0776 20.0623 22.0849 20.0732L21.4623 20.4913L20.8396 20.9094C20.9908 21.1345 21.2165 21.3194 21.4062 21.4451C21.596 21.5708 21.8542 21.7066 22.1204 21.7581L22.2628 21.0217ZM6.25 12.5H7C7 8.08172 10.5817 4.5 15 4.5V3.75V3C9.75329 3 5.5 7.25329 5.5 12.5H6.25ZM15 3.75V4.5C19.4183 4.5 23 8.08172 23 12.5H23.75H24.5C24.5 7.25329 20.2467 3 15 3V3.75ZM23.75 21.25H23V22.5H23.75H24.5V21.25H23.75ZM21.25 25V24.25H15V25V25.75H21.25V25ZM23.75 22.5H23C23 23.4665 22.2165 24.25 21.25 24.25V25V25.75C23.0449 25.75 24.5 24.2949 24.5 22.5H23.75Z" fill="#2E2216"/>
</svg>
