<svg width="30" height="30" viewBox="0 0 30 30" fill="none" xmlns="http://www.w3.org/2000/svg">
<path d="M3.51915 11.5777C3.22212 11.8664 3.21536 12.3413 3.50405 12.6383C3.79275 12.9353 4.26757 12.9421 4.56461 12.6534L4.04188 12.1156L3.51915 11.5777ZM12.9355 12.6534C13.2325 12.9421 13.7073 12.9353 13.996 12.6383C14.2847 12.3413 14.2779 11.8664 13.9809 11.5777L13.4582 12.1156L12.9355 12.6534ZM16.0191 24.0777C15.7221 24.3664 15.7153 24.8413 16.004 25.1383C16.2927 25.4353 16.7676 25.4421 17.0646 25.1534L16.5419 24.6156L16.0191 24.0777ZM25.4354 25.1534C25.7325 25.4421 26.2073 25.4353 26.496 25.1383C26.7847 24.8413 26.7779 24.3664 26.4809 24.0777L25.9582 24.6156L25.4354 25.1534ZM18.056 6.00498C17.6638 5.87174 17.2378 6.08167 17.1046 6.47387C16.9713 6.86607 17.1813 7.29202 17.5735 7.42526L17.8147 6.71512L18.056 6.00498ZM22.2117 11.5369C22.391 11.9103 22.8391 12.0676 23.2125 11.8883C23.5859 11.7089 23.7432 11.2609 23.5638 10.8875L22.8878 11.2122L22.2117 11.5369ZM11.9443 23.9952C12.3365 24.1284 12.7625 23.9185 12.8957 23.5263C13.0289 23.1341 12.819 22.7081 12.4268 22.5749L12.1856 23.285L11.9443 23.9952ZM7.86079 18.6098C7.67392 18.2401 7.22275 18.0919 6.85309 18.2788C6.48343 18.4657 6.33524 18.9168 6.52211 19.2865L7.19145 18.9481L7.86079 18.6098ZM19.2168 10.3598C18.8246 10.2266 18.3986 10.4365 18.2654 10.8287C18.1322 11.2209 18.3421 11.6469 18.7343 11.7801L18.9755 11.07L19.2168 10.3598ZM22.5262 12.2762L22.285 12.9863V12.9863L22.5262 12.2762ZM24.1119 11.4947L24.822 11.736V11.736L24.1119 11.4947ZM25.8272 8.77706C25.9605 8.38486 25.7505 7.95891 25.3583 7.82567C24.9661 7.69243 24.5402 7.90236 24.4069 8.29456L25.1171 8.53581L25.8272 8.77706ZM10.7834 19.6403C11.1756 19.7735 11.6015 19.5636 11.7347 19.1714C11.868 18.7792 11.6581 18.3533 11.2659 18.22L11.0246 18.9302L10.7834 19.6403ZM7.47391 17.7239L7.23266 18.4341V18.4341L7.47391 17.7239ZM5.88826 18.5054L5.17812 18.2641L5.88826 18.5054ZM4.17291 21.2231C4.03967 21.6153 4.2496 22.0412 4.6418 22.1745C5.034 22.3077 5.45995 22.0978 5.59319 21.7056L4.88305 21.4643L4.17291 21.2231ZM4.04188 12.1156L4.56461 12.6534C6.87378 10.409 10.6263 10.409 12.9355 12.6534L13.4582 12.1156L13.9809 11.5777C11.0896 8.7676 6.41046 8.7676 3.51915 11.5777L4.04188 12.1156ZM11.908 6.78179H11.158C11.158 8.022 10.1175 9.06358 8.78865 9.06358V9.81358V10.5636C10.9054 10.5636 12.658 8.8904 12.658 6.78179H11.908ZM8.78865 9.81358V9.06358C7.45982 9.06358 6.4193 8.022 6.4193 6.78179H5.6693H4.9193C4.9193 8.8904 6.67194 10.5636 8.78865 10.5636V9.81358ZM5.6693 6.78179H6.4193C6.4193 5.54158 7.45982 4.5 8.78865 4.5V3.75V3C6.67194 3 4.9193 4.67318 4.9193 6.78179H5.6693ZM8.78865 3.75V4.5C10.1175 4.5 11.158 5.54158 11.158 6.78179H11.908H12.658C12.658 4.67318 10.9054 3 8.78865 3V3.75ZM16.5419 24.6156L17.0646 25.1534C19.3738 22.909 23.1263 22.909 25.4354 25.1534L25.9582 24.6156L26.4809 24.0777C23.5896 21.2676 18.9104 21.2676 16.0191 24.0777L16.5419 24.6156ZM24.408 19.2818H23.658C23.658 20.522 22.6175 21.5636 21.2886 21.5636V22.3136V23.0636C23.4053 23.0636 25.158 21.3904 25.158 19.2818H24.408ZM21.2886 22.3136V21.5636C19.9598 21.5636 18.9193 20.522 18.9193 19.2818H18.1693H17.4193C17.4193 21.3904 19.1719 23.0636 21.2886 23.0636V22.3136ZM18.1693 19.2818H18.9193C18.9193 18.0416 19.9598 17 21.2886 17V16.25V15.5C19.1719 15.5 17.4193 17.1732 17.4193 19.2818H18.1693ZM21.2886 16.25V17C22.6175 17 23.658 18.0416 23.658 19.2818H24.408H25.158C25.158 17.1732 23.4053 15.5 21.2886 15.5V16.25ZM17.8147 6.71512L17.5735 7.42526C19.6931 8.14536 21.3129 9.66573 22.2117 11.5369L22.8878 11.2122L23.5638 10.8875C22.4977 8.66791 20.5728 6.85999 18.056 6.00498L17.8147 6.71512ZM12.1856 23.285L12.4268 22.5749C10.3626 21.8737 8.77267 20.4136 7.86079 18.6098L7.19145 18.9481L6.52211 19.2865C7.60392 21.4265 9.49364 23.1626 11.9443 23.9952L12.1856 23.285ZM18.9755 11.07L18.7343 11.7801L22.285 12.9863L22.5262 12.2762L22.7675 11.5661L19.2168 10.3598L18.9755 11.07ZM24.1119 11.4947L24.822 11.736L25.8272 8.77706L25.1171 8.53581L24.4069 8.29456L23.4017 11.2535L24.1119 11.4947ZM22.5262 12.2762L22.285 12.9863C23.3308 13.3416 24.4667 12.7818 24.822 11.736L24.1119 11.4947L23.4017 11.2535C23.3129 11.5149 23.0289 11.6549 22.7675 11.5661L22.5262 12.2762ZM11.0246 18.9302L11.2659 18.22L7.71516 17.0138L7.47391 17.7239L7.23266 18.4341L10.7834 19.6403L11.0246 18.9302ZM5.88826 18.5054L5.17812 18.2641L4.17291 21.2231L4.88305 21.4643L5.59319 21.7056L6.5984 18.7466L5.88826 18.5054ZM7.47391 17.7239L7.71516 17.0138C6.66929 16.6585 5.53342 17.2183 5.17812 18.2641L5.88826 18.5054L6.5984 18.7466C6.68722 18.4852 6.97119 18.3452 7.23266 18.4341L7.47391 17.7239Z" fill="#2E2216"/>
</svg>
