<svg width="24" height="24" viewBox="0 0 24 24" fill="none" xmlns="http://www.w3.org/2000/svg">
<path d="M0.420841 11.5198L5.93856 13.8784L8.08952 21.8119C8.18304 22.348 8.74416 22.4552 9.11824 22.1335L12.2044 19.2389C12.485 18.9173 12.9526 18.9173 13.3267 19.2389L18.8443 23.8489C19.2184 24.1705 19.7796 23.9561 19.8731 23.42L23.988 0.90608C24.0815 0.370033 23.6139 -0.166009 23.1463 0.0484099L0.420841 10.1261C-0.14028 10.3405 -0.14028 11.3054 0.420841 11.5198ZM7.80897 12.6991L18.6573 5.08725C18.8443 4.98004 19.0314 5.30167 18.8443 5.40888L9.95992 14.9505C9.67936 15.2721 9.39879 15.701 9.39879 16.237L9.11824 18.81C9.11824 19.1317 8.65064 19.2389 8.55712 18.81L7.43486 14.0928C7.1543 13.5568 7.34136 12.9135 7.80897 12.6991Z" fill="white"/>
</svg>
