<svg width="590" height="197" viewBox="0 0 590 197" fill="none" xmlns="http://www.w3.org/2000/svg">
<path d="M623.674 190.231C506.19 152.124 464.501 112.343 448.474 82.5625C430.587 49.3264 436.653 13.6546 419.331 10.9875C408.239 9.27913 395.499 22.3319 372.005 51.0584C300.757 138.168 300.439 161.775 268.182 167.082C222.996 174.52 192.404 133.315 122.21 132.395C70.6546 131.72 30.2524 153.195 3.31092 172.515" stroke="url(#paint0_linear_123_5980)" stroke-miterlimit="10"/>
<path d="M626.154 186.869C511.985 149.585 468.111 110.824 451.076 82.8589C432.037 51.6074 438.141 17.7881 421.037 15.7416C410.038 14.4251 397.53 27.253 374.825 54.9912C305.822 139.274 304.946 163.162 272.921 168.165C227.442 175.155 197.921 131.048 126.895 128.633C125.347 128.58 123.823 128.541 122.299 128.527C71.9825 128.106 30.9776 149.57 3.41946 168.745" stroke="url(#paint1_linear_123_5980)" stroke-miterlimit="10"/>
<path d="M628.706 183.41C517.836 146.968 471.807 109.298 453.703 83.085C433.525 53.8665 439.622 21.8548 422.738 20.4298C411.833 19.508 399.564 32.1143 377.665 58.867C310.954 140.332 309.546 164.577 277.713 169.207C231.991 175.858 203.462 128.727 131.619 124.849C130.043 124.764 128.472 124.678 126.904 124.644C75.7137 123.503 32.535 145.376 3.5851 164.975" stroke="url(#paint2_linear_123_5980)" stroke-miterlimit="10"/>
<path d="M631.264 179.947C523.681 144.339 475.564 107.85 456.332 83.3089C435.075 56.172 441.105 25.9227 424.447 25.1173C413.628 24.5932 401.617 36.9731 380.511 62.74C316.081 141.396 314.13 165.946 282.512 170.247C236.521 176.502 208.999 126.387 136.35 121.065C134.737 120.947 133.127 120.832 131.524 120.758C79.4329 118.387 34.1076 141.183 3.76602 161.203" stroke="url(#paint3_linear_123_5980)" stroke-miterlimit="10"/>
<path d="M633.82 176.483C529.533 141.719 479.401 106.486 458.968 83.5326C436.708 58.5252 442.58 29.9943 426.156 29.8043C415.417 29.679 403.656 41.8321 383.352 66.6137C321.209 142.455 318.708 167.314 287.309 171.284C241.035 177.14 214.527 124.028 141.079 117.277C139.43 117.128 137.78 116.978 136.126 116.87C83.154 113.539 35.6659 136.985 3.92803 157.432" stroke="url(#paint4_linear_123_5980)" stroke-miterlimit="10"/>
<path d="M636.379 173.02C535.382 139.098 483.346 105.214 461.595 83.7572C438.455 60.9245 444.048 34.0691 427.86 34.4903C417.203 34.768 405.694 46.6902 386.193 70.4874C326.327 143.515 323.28 168.675 292.103 172.325C245.548 177.773 220.048 121.652 145.804 113.496C144.117 113.311 142.43 113.123 140.732 112.987C86.8811 108.706 37.2193 132.794 4.09506 153.664" stroke="url(#paint5_linear_123_5980)" stroke-miterlimit="10"/>
<path d="M638.934 169.555C541.231 136.474 487.426 104.032 464.233 83.9811C440.37 63.3514 445.514 38.1492 429.572 39.1775C418.992 39.8591 407.742 51.5529 389.039 74.3602C331.46 144.574 327.857 170.033 296.904 173.363C250.059 178.402 225.575 119.261 150.537 109.712C148.807 109.492 147.087 109.268 145.35 109.103C90.6234 103.877 38.7899 128.602 4.27371 149.893" stroke="url(#paint6_linear_123_5980)" stroke-miterlimit="10"/>
<path d="M641.49 166.092C547.083 133.851 496.585 99.9305 466.864 84.205C448.2 63.5112 446.978 42.2348 431.275 43.8637C420.773 44.9536 409.784 56.4083 391.88 78.2397C336.586 145.639 332.429 171.393 301.7 174.408C254.568 179.03 231.098 116.861 155.268 105.934C153.505 105.68 151.74 105.421 149.958 105.223C94.3535 99.063 40.3419 124.411 4.43959 146.129" stroke="url(#paint7_linear_123_5980)" stroke-miterlimit="10"/>
<path d="M644.046 162.629C552.932 131.228 501.171 98.144 469.496 84.4288C450.715 65.5268 448.445 46.3255 432.982 48.5507C422.557 50.0512 411.825 61.2643 394.724 82.1083C341.721 146.694 336.997 172.739 306.495 175.443C259.071 179.644 236.622 114.436 159.997 102.144C158.197 101.855 156.393 101.561 154.567 101.332C98.0846 94.2452 41.9099 120.212 4.60915 142.352" stroke="url(#paint8_linear_123_5980)" stroke-miterlimit="10"/>
<path d="M646.602 159.166C558.779 128.605 505.763 96.3604 472.127 84.6526C453.238 67.5421 449.907 50.4207 434.691 53.2371C424.339 55.1509 413.865 66.1238 397.567 85.9813C346.838 147.757 341.562 174.085 311.294 176.48C263.572 180.256 242.15 112.004 164.725 98.3583C162.889 98.0353 161.046 97.7068 159.176 97.4458C101.817 89.4371 43.4721 116.016 4.77996 138.58" stroke="url(#paint9_linear_123_5980)" stroke-miterlimit="10"/>
<path d="M649.16 155.702C564.627 125.982 510.355 94.5751 474.762 84.8774C455.755 69.5588 451.377 54.5221 436.397 57.924C426.128 60.256 415.909 70.9841 400.407 89.8515C351.964 148.81 346.129 175.426 316.091 177.516C268.073 180.859 247.683 109.559 169.454 94.5719C167.581 94.2126 165.699 93.8521 163.788 93.5582C105.547 84.6339 45.0347 111.82 4.95116 134.807" stroke="url(#paint10_linear_123_5980)" stroke-miterlimit="10"/>
<path d="M651.715 152.237C570.482 123.36 514.938 92.7899 477.388 85.1053C458.273 71.579 452.847 58.6302 438.103 62.6155C427.916 65.3685 417.95 75.8468 403.251 93.733C357.095 149.877 350.694 176.772 320.886 178.564C272.567 181.468 253.219 107.116 174.183 90.7955C172.271 90.401 170.359 90.0065 168.397 89.6845C109.275 79.8491 46.5966 107.636 5.12193 131.047" stroke="url(#paint11_linear_123_5980)" stroke-miterlimit="10"/>
<path d="M654.274 148.774C576.331 120.737 519.532 91.0049 480.027 85.3247C460.793 73.5905 454.327 62.735 439.812 67.2972C429.709 70.4738 419.992 80.7015 406.097 97.6026C362.213 150.932 355.258 178.103 325.687 179.599C277.067 182.057 258.766 104.647 178.914 87.0069C176.967 86.5764 175.009 86.1497 173.004 85.7913C112.996 75.0544 48.1554 103.431 5.28942 127.27" stroke="url(#paint12_linear_123_5980)" stroke-miterlimit="10"/>
<path d="M656.825 145.31C582.184 118.114 524.126 89.2209 482.658 85.5507C463.314 75.6087 455.808 66.8467 441.519 71.9844C431.504 75.5867 422.038 85.5599 408.939 101.475C367.345 151.992 359.818 179.436 330.486 180.637C281.56 182.647 264.317 102.173 183.645 83.2231C181.661 82.7562 179.662 82.2963 177.619 81.906C116.725 70.2655 49.7236 99.2405 5.45554 123.499" stroke="url(#paint13_linear_123_5980)" stroke-miterlimit="10"/>
<path d="M659.386 141.847C588.032 115.491 528.711 87.4356 485.284 85.7732C465.831 77.6234 457.293 70.9592 443.222 76.6734C433.3 80.7026 424.076 90.4203 411.785 105.351C372.474 153.054 364.387 180.762 335.287 181.679C286.058 183.23 269.88 99.7049 188.379 79.4401C186.358 78.9381 184.32 78.4463 182.236 78.0228C120.449 65.4846 51.2912 95.0491 5.64011 119.731" stroke="url(#paint14_linear_123_5980)" stroke-miterlimit="10"/>
<path d="M661.945 138.383C593.884 112.868 533.303 85.6506 487.923 85.9972C468.352 79.6395 458.788 75.0744 444.934 81.3578C435.102 85.8157 426.12 95.2776 414.623 109.223C377.599 154.111 368.944 182.084 340.079 182.717C290.545 183.801 275.438 97.2167 193.104 75.6595C191.046 75.1212 188.968 74.5972 186.832 74.1415C124.161 60.7038 52.8485 90.8522 5.80564 115.954" stroke="url(#paint15_linear_123_5980)" stroke-miterlimit="10"/>
<path d="M664.503 134.92C599.733 110.246 537.895 83.8696 490.555 86.2205C470.877 81.6522 460.286 79.1915 446.637 86.0444C436.91 90.9317 428.162 100.136 417.465 113.092C382.723 155.166 373.504 183.4 344.876 183.75C295.037 184.36 281.009 94.7232 197.831 71.8655C195.737 71.2899 193.619 70.735 191.449 70.2463C127.874 55.9281 54.405 86.6582 5.97592 112.187" stroke="url(#paint16_linear_123_5980)" stroke-miterlimit="10"/>
<path d="M667.059 131.452C605.584 107.619 542.483 82.0771 493.188 86.4413C473.391 83.667 461.789 83.3035 448.352 90.7267C438.724 96.0387 430.206 104.99 420.312 116.965C387.856 156.224 378.07 184.716 349.674 184.791C299.53 184.925 286.589 92.2335 202.563 68.0881C200.433 67.4752 198.275 66.8894 196.063 66.3675C131.584 51.1568 55.9744 82.4658 6.14894 108.422" stroke="url(#paint17_linear_123_5980)" stroke-miterlimit="10"/>
<path d="M669.615 127.99C611.438 105.005 548.523 93.7577 495.816 86.6694C476.095 84.0167 463.294 87.4255 450.056 95.4182C440.534 101.161 432.246 109.854 423.153 120.844C392.979 157.29 382.628 186.033 354.473 185.833C304.025 185.477 292.174 89.7341 207.291 64.3008C205.127 63.6529 202.923 63.035 200.672 62.48C135.291 46.3844 57.5415 78.2704 6.31726 104.646" stroke="url(#paint18_linear_123_5980)" stroke-miterlimit="10"/>
<path d="M672.173 124.527C617.283 102.375 553.031 81.5562 498.451 86.891C478.765 88.8163 464.803 91.5398 451.762 100.103C442.351 106.276 434.29 114.71 425.996 124.715C398.102 158.348 387.196 187.339 359.271 186.87C308.521 186.02 297.769 87.2296 212.024 60.5148C209.821 59.8294 207.578 59.1839 205.283 58.5934C138.953 41.6953 59.1001 74.0756 6.4845 100.875" stroke="url(#paint19_linear_123_5980)" stroke-miterlimit="10"/>
<path d="M674.73 121.065C623.138 99.7532 557.104 78.2437 501.081 87.1158C481.21 90.2637 466.319 95.6574 453.471 104.79C444.175 111.394 436.332 119.57 428.837 128.589C403.23 159.409 391.767 188.719 364.066 187.912C313.012 186.418 303.422 84.6507 216.752 56.7317C214.517 56.0071 212.231 55.3328 209.894 54.709C142.671 36.8897 60.6619 69.8808 6.66001 97.103" stroke="url(#paint20_linear_123_5980)" stroke-miterlimit="10"/>
<path d="M677.286 117.602C628.988 97.1326 560.844 74.9444 503.717 87.3419C417.597 106.034 415.072 190.629 368.865 188.95C316.187 187.036 308.563 76.7025 214.504 50.8249C146.392 32.0856 62.2174 65.6872 6.83092 93.3347" stroke="url(#paint21_linear_123_5980)" stroke-miterlimit="10"/>
<defs>
<linearGradient id="paint0_linear_123_5980" x1="-1.78833" y1="87.1978" x2="615.311" y2="50.3148" gradientUnits="userSpaceOnUse">
<stop stop-color="white" stop-opacity="0"/>
<stop offset="0.307692" stop-color="white" stop-opacity="0.7"/>
</linearGradient>
<linearGradient id="paint1_linear_123_5980" x1="-1.38824" y1="87.7871" x2="618.086" y2="50.9997" gradientUnits="userSpaceOnUse">
<stop stop-color="white" stop-opacity="0"/>
<stop offset="0.307692" stop-color="white" stop-opacity="0.7"/>
</linearGradient>
<linearGradient id="paint2_linear_123_5980" x1="-0.962987" y1="88.3719" x2="620.871" y2="51.4522" gradientUnits="userSpaceOnUse">
<stop stop-color="white" stop-opacity="0"/>
<stop offset="0.307692" stop-color="white" stop-opacity="0.7"/>
</linearGradient>
<linearGradient id="paint3_linear_123_5980" x1="-0.523055" y1="88.9626" x2="623.662" y2="51.9034" gradientUnits="userSpaceOnUse">
<stop stop-color="white" stop-opacity="0"/>
<stop offset="0.307692" stop-color="white" stop-opacity="0.7"/>
</linearGradient>
<linearGradient id="paint4_linear_123_5980" x1="0.0254305" y1="91.7009" x2="626.577" y2="54.501" gradientUnits="userSpaceOnUse">
<stop stop-color="white" stop-opacity="0"/>
<stop offset="0.307692" stop-color="white" stop-opacity="0.7"/>
</linearGradient>
<linearGradient id="paint5_linear_123_5980" x1="0.5786" y1="94.4368" x2="629.496" y2="57.0965" gradientUnits="userSpaceOnUse">
<stop stop-color="white" stop-opacity="0"/>
<stop offset="0.307692" stop-color="white" stop-opacity="0.7"/>
</linearGradient>
<linearGradient id="paint6_linear_123_5980" x1="1.14324" y1="97.1673" x2="632.411" y2="59.6875" gradientUnits="userSpaceOnUse">
<stop stop-color="white" stop-opacity="0"/>
<stop offset="0.307692" stop-color="white" stop-opacity="0.7"/>
</linearGradient>
<linearGradient id="paint7_linear_123_5980" x1="1.69413" y1="99.8871" x2="635.326" y2="62.267" gradientUnits="userSpaceOnUse">
<stop stop-color="white" stop-opacity="0"/>
<stop offset="0.307692" stop-color="white" stop-opacity="0.7"/>
</linearGradient>
<linearGradient id="paint8_linear_123_5980" x1="2.2485" y1="102.592" x2="638.239" y2="64.8316" gradientUnits="userSpaceOnUse">
<stop stop-color="white" stop-opacity="0"/>
<stop offset="0.307692" stop-color="white" stop-opacity="0.7"/>
</linearGradient>
<linearGradient id="paint9_linear_123_5980" x1="2.80282" y1="105.28" x2="641.152" y2="67.3795" gradientUnits="userSpaceOnUse">
<stop stop-color="white" stop-opacity="0"/>
<stop offset="0.307692" stop-color="white" stop-opacity="0.7"/>
</linearGradient>
<linearGradient id="paint10_linear_123_5980" x1="3.35625" y1="107.944" x2="644.066" y2="69.904" gradientUnits="userSpaceOnUse">
<stop stop-color="white" stop-opacity="0"/>
<stop offset="0.307692" stop-color="white" stop-opacity="0.7"/>
</linearGradient>
<linearGradient id="paint11_linear_123_5980" x1="3.90705" y1="110.585" x2="646.976" y2="72.4049" gradientUnits="userSpaceOnUse">
<stop stop-color="white" stop-opacity="0"/>
<stop offset="0.307692" stop-color="white" stop-opacity="0.7"/>
</linearGradient>
<linearGradient id="paint12_linear_123_5980" x1="4.45238" y1="113.172" x2="649.885" y2="74.8509" gradientUnits="userSpaceOnUse">
<stop stop-color="white" stop-opacity="0"/>
<stop offset="0.307692" stop-color="white" stop-opacity="0.7"/>
</linearGradient>
<linearGradient id="paint13_linear_123_5980" x1="4.99257" y1="115.702" x2="652.784" y2="77.2407" gradientUnits="userSpaceOnUse">
<stop stop-color="white" stop-opacity="0"/>
<stop offset="0.307692" stop-color="white" stop-opacity="0.7"/>
</linearGradient>
<linearGradient id="paint14_linear_123_5980" x1="5.54599" y1="118.146" x2="655.687" y2="79.5452" gradientUnits="userSpaceOnUse">
<stop stop-color="white" stop-opacity="0"/>
<stop offset="0.307692" stop-color="white" stop-opacity="0.7"/>
</linearGradient>
<linearGradient id="paint15_linear_123_5980" x1="6.07285" y1="120.454" x2="658.581" y2="81.7135" gradientUnits="userSpaceOnUse">
<stop stop-color="white" stop-opacity="0"/>
<stop offset="0.307692" stop-color="white" stop-opacity="0.7"/>
</linearGradient>
<linearGradient id="paint16_linear_123_5980" x1="6.37287" y1="118.873" x2="661.242" y2="79.9917" gradientUnits="userSpaceOnUse">
<stop stop-color="white" stop-opacity="0"/>
<stop offset="0.307692" stop-color="white" stop-opacity="0.7"/>
</linearGradient>
<linearGradient id="paint17_linear_123_5980" x1="6.66905" y1="117.182" x2="663.895" y2="78.1609" gradientUnits="userSpaceOnUse">
<stop stop-color="white" stop-opacity="0"/>
<stop offset="0.307692" stop-color="white" stop-opacity="0.7"/>
</linearGradient>
<linearGradient id="paint18_linear_123_5980" x1="6.96096" y1="115.487" x2="666.548" y2="76.3261" gradientUnits="userSpaceOnUse">
<stop stop-color="white" stop-opacity="0"/>
<stop offset="0.307692" stop-color="white" stop-opacity="0.7"/>
</linearGradient>
<linearGradient id="paint19_linear_123_5980" x1="7.2521" y1="113.803" x2="669.203" y2="74.5019" gradientUnits="userSpaceOnUse">
<stop stop-color="white" stop-opacity="0"/>
<stop offset="0.307692" stop-color="white" stop-opacity="0.7"/>
</linearGradient>
<linearGradient id="paint20_linear_123_5980" x1="7.55051" y1="112.102" x2="671.856" y2="72.6604" gradientUnits="userSpaceOnUse">
<stop stop-color="white" stop-opacity="0"/>
<stop offset="0.307692" stop-color="white" stop-opacity="0.7"/>
</linearGradient>
<linearGradient id="paint21_linear_123_5980" x1="7.84393" y1="110.397" x2="674.508" y2="70.8155" gradientUnits="userSpaceOnUse">
<stop stop-color="white" stop-opacity="0"/>
<stop offset="0.307692" stop-color="white" stop-opacity="0.7"/>
</linearGradient>
</defs>
</svg>
