<svg width="30" height="30" viewBox="0 0 30 30" fill="none" xmlns="http://www.w3.org/2000/svg">
<path d="M2.5 4.5C2.5 3.79993 2.5 3.4499 2.63624 3.18251C2.75608 2.94731 2.94731 2.75608 3.18251 2.63624C3.4499 2.5 3.79993 2.5 4.5 2.5H10.5C11.2001 2.5 11.5501 2.5 11.8175 2.63624C12.0527 2.75608 12.2439 2.94731 12.3638 3.18251C12.5 3.4499 12.5 3.79993 12.5 4.5V10.5C12.5 11.2001 12.5 11.5501 12.3638 11.8175C12.2439 12.0527 12.0527 12.2439 11.8175 12.3638C11.5501 12.5 11.2001 12.5 10.5 12.5H4.5C3.79993 12.5 3.4499 12.5 3.18251 12.3638C2.94731 12.2439 2.75608 12.0527 2.63624 11.8175C2.5 11.5501 2.5 11.2001 2.5 10.5V4.5Z" stroke="url(#paint0_linear_123_5562)" stroke-width="1.5"/>
<path d="M2.5 19.5C2.5 18.7999 2.5 18.4499 2.63624 18.1825C2.75608 17.9473 2.94731 17.7561 3.18251 17.6362C3.4499 17.5 3.79993 17.5 4.5 17.5H10.5C11.2001 17.5 11.5501 17.5 11.8175 17.6362C12.0527 17.7561 12.2439 17.9473 12.3638 18.1825C12.5 18.4499 12.5 18.7999 12.5 19.5V25.5C12.5 26.2001 12.5 26.5501 12.3638 26.8175C12.2439 27.0527 12.0527 27.2439 11.8175 27.3638C11.5501 27.5 11.2001 27.5 10.5 27.5H4.5C3.79993 27.5 3.4499 27.5 3.18251 27.3638C2.94731 27.2439 2.75608 27.0527 2.63624 26.8175C2.5 26.5501 2.5 26.2001 2.5 25.5V19.5Z" stroke="url(#paint1_linear_123_5562)" stroke-width="1.5"/>
<path d="M17.5 4.5C17.5 3.79993 17.5 3.4499 17.6362 3.18251C17.7561 2.94731 17.9473 2.75608 18.1825 2.63624C18.4499 2.5 18.7999 2.5 19.5 2.5H25.5C26.2001 2.5 26.5501 2.5 26.8175 2.63624C27.0527 2.75608 27.2439 2.94731 27.3638 3.18251C27.5 3.4499 27.5 3.79993 27.5 4.5V10.5C27.5 11.2001 27.5 11.5501 27.3638 11.8175C27.2439 12.0527 27.0527 12.2439 26.8175 12.3638C26.5501 12.5 26.2001 12.5 25.5 12.5H19.5C18.7999 12.5 18.4499 12.5 18.1825 12.3638C17.9473 12.2439 17.7561 12.0527 17.6362 11.8175C17.5 11.5501 17.5 11.2001 17.5 10.5V4.5Z" stroke="url(#paint2_linear_123_5562)" stroke-width="1.5"/>
<path d="M17.5 19.5C17.5 18.7999 17.5 18.4499 17.6362 18.1825C17.7561 17.9473 17.9473 17.7561 18.1825 17.6362C18.4499 17.5 18.7999 17.5 19.5 17.5H25.5C26.2001 17.5 26.5501 17.5 26.8175 17.6362C27.0527 17.7561 27.2439 17.9473 27.3638 18.1825C27.5 18.4499 27.5 18.7999 27.5 19.5V25.5C27.5 26.2001 27.5 26.5501 27.3638 26.8175C27.2439 27.0527 27.0527 27.2439 26.8175 27.3638C26.5501 27.5 26.2001 27.5 25.5 27.5H19.5C18.7999 27.5 18.4499 27.5 18.1825 27.3638C17.9473 27.2439 17.7561 27.0527 17.6362 26.8175C17.5 26.5501 17.5 26.2001 17.5 25.5V19.5Z" stroke="url(#paint3_linear_123_5562)" stroke-width="1.5"/>
<defs>
<linearGradient id="paint0_linear_123_5562" x1="15" y1="0.0446495" x2="-22.2149" y2="69.5367" gradientUnits="userSpaceOnUse">
<stop offset="0.25051" stop-color="#F34CFF"/>
<stop offset="0.753806" stop-color="white"/>
</linearGradient>
<linearGradient id="paint1_linear_123_5562" x1="15" y1="0.0446495" x2="-22.2149" y2="69.5367" gradientUnits="userSpaceOnUse">
<stop offset="0.25051" stop-color="#F34CFF"/>
<stop offset="0.753806" stop-color="white"/>
</linearGradient>
<linearGradient id="paint2_linear_123_5562" x1="15" y1="0.0446495" x2="-22.2149" y2="69.5367" gradientUnits="userSpaceOnUse">
<stop offset="0.25051" stop-color="#F34CFF"/>
<stop offset="0.753806" stop-color="white"/>
</linearGradient>
<linearGradient id="paint3_linear_123_5562" x1="15" y1="0.0446495" x2="-22.2149" y2="69.5367" gradientUnits="userSpaceOnUse">
<stop offset="0.25051" stop-color="#F34CFF"/>
<stop offset="0.753806" stop-color="white"/>
</linearGradient>
</defs>
</svg>
