<svg width="24" height="24" viewBox="0 0 24 24" fill="none" xmlns="http://www.w3.org/2000/svg">
<path d="M2 8.25H14.5C14.6339 8.25 14.75 8.36614 14.75 8.5C14.75 8.63386 14.6339 8.75 14.5 8.75H2C1.86614 8.75 1.75 8.63386 1.75 8.5C1.75 8.36614 1.86614 8.25 2 8.25Z" stroke="white"/>
<path d="M6 16.25H8C8.13386 16.25 8.25 16.3661 8.25 16.5C8.25 16.6339 8.13386 16.75 8 16.75H6C5.86614 16.75 5.75 16.6339 5.75 16.5C5.75 16.3661 5.86614 16.25 6 16.25Z" stroke="white"/>
<path d="M10.5 16.25H14.5C14.6339 16.25 14.75 16.3661 14.75 16.5C14.75 16.6339 14.6339 16.75 14.5 16.75H10.5C10.3661 16.75 10.25 16.6339 10.25 16.5C10.25 16.3661 10.3661 16.25 10.5 16.25Z" stroke="white"/>
<path d="M6.44043 3.25H14.5C14.6339 3.25 14.75 3.36614 14.75 3.5C14.75 3.63386 14.6339 3.75 14.5 3.75H6.44043C5.64842 3.75 4.98413 3.78338 4.44043 3.89258C3.89172 4.00281 3.42491 4.19832 3.06641 4.55176C2.70737 4.90581 2.50807 5.36789 2.39551 5.91211C2.28415 6.45055 2.25001 7.10743 2.25 7.88965V16.0996C2.25 16.882 2.28414 17.5396 2.39551 18.0781C2.50809 18.6223 2.70735 19.0845 3.06641 19.4385C3.42491 19.7919 3.89172 19.9874 4.44043 20.0977C4.98412 20.2069 5.64844 20.2402 6.44043 20.2402H17.5498C18.3419 20.2402 19.0061 20.2069 19.5498 20.0977C20.0985 19.9874 20.5653 19.7919 20.9238 19.4385C21.2828 19.0845 21.4822 18.6223 21.5947 18.0781C21.7061 17.5396 21.7402 16.882 21.7402 16.0996V14.0195C21.7405 13.8859 21.8565 13.7695 21.9902 13.7695C22.1238 13.7697 22.24 13.8859 22.2402 14.0195V16.1016C22.2452 18.0585 21.9391 19.1606 21.2939 19.8018C20.6474 20.4443 19.5331 20.75 17.5596 20.75H6.44043C4.46715 20.75 3.3521 20.4446 2.7041 19.8027C2.05763 19.1623 1.75004 18.062 1.75 16.1104V7.88965C1.75004 5.93801 2.05763 4.83768 2.7041 4.19727C3.3521 3.55541 4.46715 3.25 6.44043 3.25Z" stroke="white"/>
<path d="M19.8926 3.27545C19.9936 3.23575 20.1073 3.25761 20.1846 3.33112L22.1768 5.3233C22.2715 5.41805 22.2715 5.58209 22.1768 5.67682C22.082 5.77152 21.918 5.77152 21.8232 5.67682L21.1035 4.95612L20.25 4.1026V9.50006C20.25 9.63389 20.1338 9.75006 20 9.75006C19.8662 9.75006 19.75 9.63389 19.75 9.50006V3.50006L19.7617 3.42389C19.7838 3.35312 19.8346 3.29831 19.8926 3.27545Z" stroke="white"/>
<path d="M19.8238 3.32379C19.9185 3.22905 20.0816 3.22905 20.1763 3.32379C20.271 3.41854 20.271 3.58161 20.1763 3.67633L18.1763 5.67633C18.125 5.72762 18.0641 5.74957 17.9996 5.74957C17.9352 5.74947 17.875 5.72746 17.8238 5.67633C17.7291 5.58159 17.7291 5.41853 17.8238 5.32379L19.8238 3.32379Z" stroke="white"/>
</svg>
