<svg width="22" height="22" viewBox="0 0 22 22" fill="none" xmlns="http://www.w3.org/2000/svg">
<path d="M14.6666 3.66665C14.6666 4.67917 12.2042 5.49998 9.16663 5.49998C6.12906 5.49998 3.66663 4.67917 3.66663 3.66665M14.6666 3.66665C14.6666 2.65412 12.2042 1.83331 9.16663 1.83331C6.12906 1.83331 3.66663 2.65412 3.66663 3.66665M14.6666 3.66665V7.33331M3.66663 3.66665V7.33331C3.66663 8.34584 6.12906 9.16665 9.16663 9.16665C12.2042 9.16665 14.6666 8.34584 14.6666 7.33331M18.3333 9.06233C18.3333 10.0748 15.8709 10.8957 12.8333 10.8957C9.79573 10.8957 7.33329 10.0748 7.33329 9.06233V12.729M18.3333 9.06233C18.3333 8.26408 16.8028 7.58499 14.6666 7.33331M18.3333 9.06233V12.729C18.3333 13.7415 15.8709 14.5624 12.8333 14.5624C9.79573 14.5624 7.33329 13.7415 7.33329 12.729M3.66663 14.458C3.66663 15.4706 6.12906 16.2914 9.16663 16.2914C12.2042 16.2914 14.6666 15.4706 14.6666 14.458V18.1247C14.6666 19.1373 12.2042 19.9581 9.16663 19.9581C6.12906 19.9581 3.66663 19.1373 3.66663 18.1247V14.458ZM3.66663 14.458C3.66663 13.6598 5.19711 12.9807 7.33329 12.729" stroke="#2E2216"/>
</svg>
