<svg width="24" height="24" viewBox="0 0 24 24" fill="none" xmlns="http://www.w3.org/2000/svg">
<path d="M12 5.31H22C22.1339 5.31 22.25 5.42614 22.25 5.56C22.25 5.69952 22.1382 5.81 22 5.81H12C11.8661 5.81 11.75 5.69386 11.75 5.56C11.75 5.42614 11.8661 5.31 12 5.31Z" stroke="white"/>
<path d="M14.2295 1.75H19.7793C20.84 1.75 21.4102 1.94216 21.7334 2.2627C22.0555 2.58223 22.25 3.14593 22.25 4.2002V8.30957C22.25 9.3583 22.0562 9.91988 21.7344 10.2383C21.4111 10.5581 20.8401 10.75 19.7793 10.75H14.2295C13.1688 10.75 12.5986 10.5579 12.2754 10.2373C11.9534 9.91772 11.7598 9.35381 11.7598 8.2998V4.2002C11.7598 3.14619 11.9534 2.58228 12.2754 2.2627C12.5986 1.94211 13.1688 1.75003 14.2295 1.75ZM14.2197 2.25C13.8826 2.25 13.5845 2.25603 13.3398 2.29395C13.093 2.33221 12.8299 2.41298 12.623 2.61719C12.4156 2.82226 12.333 3.08413 12.2939 3.33008C12.2554 3.57289 12.25 3.86832 12.25 4.2002V8.30957C12.25 8.64164 12.2554 8.93777 12.2939 9.18066C12.333 9.42667 12.4154 9.68851 12.623 9.89355C12.8299 10.0978 13.093 10.1776 13.3398 10.2158C13.5845 10.2537 13.8825 10.2598 14.2197 10.2598H19.7695C20.1066 10.2598 20.4048 10.2537 20.6494 10.2158C20.8962 10.1776 21.1594 10.0977 21.3662 9.89355C21.5739 9.68851 21.6562 9.42669 21.6953 9.18066C21.7339 8.93777 21.7402 8.64164 21.7402 8.30957V4.2002C21.7402 3.8683 21.7338 3.5729 21.6953 3.33008C21.6562 3.08408 21.5737 2.82228 21.3662 2.61719C21.1594 2.41298 20.8962 2.33221 20.6494 2.29395C20.4048 2.25606 20.1066 2.25 19.7695 2.25H14.2197Z" stroke="white"/>
<path d="M2 16.81H12C12.1339 16.81 12.25 16.9261 12.25 17.06C12.25 17.1995 12.1382 17.31 12 17.31H2C1.86614 17.31 1.75 17.1939 1.75 17.06C1.75 16.9261 1.86614 16.81 2 16.81Z" stroke="white"/>
<path d="M4.22949 13.25H9.7793C10.84 13.25 11.4102 13.4422 11.7334 13.7627C12.0555 14.0822 12.25 14.6459 12.25 15.7002V19.8096C12.25 20.8583 12.0562 21.4199 11.7344 21.7383C11.4111 22.0581 10.8401 22.25 9.7793 22.25H4.22949C3.1688 22.25 2.59856 22.0579 2.27539 21.7373C1.95342 21.4177 1.75977 20.8538 1.75977 19.7998V15.7002C1.75977 14.6462 1.95342 14.0823 2.27539 13.7627C2.59856 13.4421 3.1688 13.25 4.22949 13.25ZM4.21973 13.75C3.88257 13.75 3.58448 13.756 3.33984 13.7939C3.09303 13.8322 2.82988 13.913 2.62305 14.1172C2.41561 14.3223 2.333 14.5841 2.29395 14.8301C2.25543 15.0729 2.25 15.3683 2.25 15.7002V19.8096C2.25 20.1416 2.25537 20.4378 2.29395 20.6807C2.33304 20.9267 2.41542 21.1885 2.62305 21.3936C2.82988 21.5978 3.09303 21.6776 3.33984 21.7158C3.58448 21.7537 3.88255 21.7598 4.21973 21.7598H9.76953C10.1066 21.7598 10.4048 21.7537 10.6494 21.7158C10.8962 21.6776 11.1594 21.5977 11.3662 21.3936C11.5739 21.1885 11.6562 20.9267 11.6953 20.6807C11.7339 20.4378 11.7402 20.1416 11.7402 19.8096V15.7002C11.7402 15.3683 11.7338 15.0729 11.6953 14.8301C11.6562 14.5841 11.5737 14.3223 11.3662 14.1172C11.1594 13.913 10.8962 13.8322 10.6494 13.7939C10.4048 13.7561 10.1066 13.75 9.76953 13.75H4.21973Z" stroke="white"/>
<path d="M22.0098 14.74C22.1436 14.74 22.2598 14.8561 22.2598 14.99C22.2498 18.9949 18.9928 22.2498 15 22.2498C14.9149 22.2497 14.8316 22.2012 14.7881 22.1277C14.7412 22.0382 14.7432 21.9459 14.792 21.8621L14.791 21.8611L15.8389 20.1169C15.9074 20.003 16.0638 19.9593 16.1885 20.032C16.2982 20.0962 16.3451 20.2442 16.2686 20.3767L16.001 20.823L15.3926 21.8376L16.5449 21.5671C19.524 20.8655 21.7598 18.1888 21.7598 14.99C21.7598 14.8563 21.8761 14.7402 22.0098 14.74Z" stroke="white"/>
<path d="M9 1.75C9.08457 1.75 9.16717 1.79829 9.21094 1.87109C9.25868 1.96103 9.2562 2.0534 9.20703 2.1377L8.16113 3.88281C8.09263 3.99686 7.93621 4.04051 7.81152 3.96777C7.71523 3.91131 7.66735 3.79028 7.70898 3.67188L7.73145 3.62207L7.99902 3.17773L8.6084 2.16211L7.45508 2.43359C4.47627 3.1353 2.24034 5.81114 2.24023 9.00977V9.02246C2.24291 9.12967 2.14096 9.25 2 9.25C1.86614 9.25 1.75 9.13386 1.75 9C1.75 5.00614 5.00614 1.75 9 1.75Z" stroke="white"/>
</svg>
