<svg width="22" height="22" viewBox="0 0 22 22" fill="none" xmlns="http://www.w3.org/2000/svg">
<path d="M1.83337 7.33332H20.1667M5.50004 14.6667H9.16671M12.8334 14.6667H16.5M4.76671 18.3333H17.2334C18.2601 18.3333 18.7735 18.3333 19.1657 18.1335C19.5107 17.9577 19.7911 17.6773 19.9669 17.3323C20.1667 16.9401 20.1667 16.4268 20.1667 15.4V6.59999C20.1667 5.57323 20.1667 5.05985 19.9669 4.66767C19.7911 4.32271 19.5107 4.04225 19.1657 3.86648C18.7735 3.66666 18.2601 3.66666 17.2334 3.66666H4.76671C3.73994 3.66666 3.22656 3.66666 2.83439 3.86648C2.48943 4.04225 2.20896 4.32271 2.0332 4.66767C1.83337 5.05985 1.83337 5.57323 1.83337 6.59999V15.4C1.83337 16.4268 1.83337 16.9401 2.0332 17.3323C2.20896 17.6773 2.48943 17.9577 2.83439 18.1335C3.22656 18.3333 3.73994 18.3333 4.76671 18.3333Z" stroke="#2E2216" stroke-linecap="round"/>
</svg>
