<svg width="30" height="30" viewBox="0 0 30 30" fill="none" xmlns="http://www.w3.org/2000/svg">
<path d="M21.135 2.77248L20.7945 3.44074L21.135 2.77248ZM22.2275 3.86502L21.5593 4.20552L22.2275 3.86502ZM8.86502 2.77248L9.20552 3.44074L8.86502 2.77248ZM7.77248 3.86502L8.44074 4.20552L7.77248 3.86502ZM22.5 9.25C22.0858 9.25 21.75 9.58579 21.75 10C21.75 10.4142 22.0858 10.75 22.5 10.75V10V9.25ZM7.5 10.75C7.91421 10.75 8.25 10.4142 8.25 10C8.25 9.58579 7.91421 9.25 7.5 9.25V10V10.75ZM12.5 6.75C12.0858 6.75 11.75 7.08579 11.75 7.5C11.75 7.91421 12.0858 8.25 12.5 8.25V7.5V6.75ZM17.5 8.25C17.9142 8.25 18.25 7.91421 18.25 7.5C18.25 7.08579 17.9142 6.75 17.5 6.75V7.5V8.25ZM12.5 11.75C12.0858 11.75 11.75 12.0858 11.75 12.5C11.75 12.9142 12.0858 13.25 12.5 13.25V12.5V11.75ZM17.5 13.25C17.9142 13.25 18.25 12.9142 18.25 12.5C18.25 12.0858 17.9142 11.75 17.5 11.75V12.5V13.25ZM12.5 16.75C12.0858 16.75 11.75 17.0858 11.75 17.5C11.75 17.9142 12.0858 18.25 12.5 18.25V17.5V16.75ZM17.5 18.25C17.9142 18.25 18.25 17.9142 18.25 17.5C18.25 17.0858 17.9142 16.75 17.5 16.75V17.5V18.25ZM11.5 2.5V3.25H18.5V2.5V1.75H11.5V2.5ZM22.5 6.5H21.75V22.5H22.5H23.25V6.5H22.5ZM22.5 22.5V21.75H7.5V22.5V23.25H22.5V22.5ZM7.5 22.5H8.25V6.5H7.5H6.75V22.5H7.5ZM22.5 22.5V23.25H26.25V22.5V21.75H22.5V22.5ZM7.5 22.5V21.75H3.75V22.5V23.25H7.5V22.5ZM18.5 2.5V3.25C19.2124 3.25 19.7017 3.25058 20.0809 3.28157C20.4514 3.31184 20.6504 3.36735 20.7945 3.44074L21.135 2.77248L21.4755 2.10423C21.0847 1.90514 20.6663 1.8244 20.2031 1.78655C19.7486 1.74942 19.1877 1.75 18.5 1.75V2.5ZM22.5 6.5H23.25C23.25 5.81231 23.2506 5.25144 23.2134 4.79693C23.1756 4.33367 23.0949 3.91527 22.8958 3.52453L22.2275 3.86502L21.5593 4.20552C21.6327 4.34956 21.6882 4.54858 21.7184 4.91908C21.7494 5.29833 21.75 5.78756 21.75 6.5H22.5ZM21.135 2.77248L20.7945 3.44074C21.1238 3.60852 21.3915 3.87623 21.5593 4.20552L22.2275 3.86502L22.8958 3.52453C22.5842 2.913 22.087 2.41582 21.4755 2.10423L21.135 2.77248ZM11.5 2.5V1.75C10.8123 1.75 10.2514 1.74942 9.79693 1.78655C9.33367 1.8244 8.91527 1.90514 8.52453 2.10423L8.86502 2.77248L9.20552 3.44074C9.34956 3.36735 9.54858 3.31184 9.91908 3.28157C10.2983 3.25058 10.7876 3.25 11.5 3.25V2.5ZM7.5 6.5H8.25C8.25 5.78756 8.25058 5.29833 8.28157 4.91908C8.31184 4.54858 8.36735 4.34956 8.44074 4.20552L7.77248 3.86502L7.10423 3.52453C6.90514 3.91527 6.8244 4.33367 6.78655 4.79693C6.74942 5.25144 6.75 5.81231 6.75 6.5H7.5ZM8.86502 2.77248L8.52453 2.10423C7.913 2.41582 7.41582 2.913 7.10423 3.52453L7.77248 3.86502L8.44074 4.20552C8.60852 3.87623 8.87623 3.60852 9.20552 3.44074L8.86502 2.77248ZM22.5 10V10.75H23.75V10V9.25H22.5V10ZM26.25 12.5H25.5V25H26.25H27V12.5H26.25ZM23.75 27.5V26.75H6.25V27.5V28.25H23.75V27.5ZM3.75 25H4.5V12.5H3.75H3V25H3.75ZM6.25 10V10.75H7.5V10V9.25H6.25V10ZM3.75 12.5H4.5C4.5 11.5335 5.2835 10.75 6.25 10.75V10V9.25C4.45507 9.25 3 10.7051 3 12.5H3.75ZM6.25 27.5V26.75C5.2835 26.75 4.5 25.9665 4.5 25H3.75H3C3 26.7949 4.45507 28.25 6.25 28.25V27.5ZM26.25 25H25.5C25.5 25.9665 24.7165 26.75 23.75 26.75V27.5V28.25C25.5449 28.25 27 26.7949 27 25H26.25ZM23.75 10V10.75C24.7165 10.75 25.5 11.5335 25.5 12.5H26.25H27C27 10.7051 25.5449 9.25 23.75 9.25V10ZM12.5 7.5V8.25H17.5V7.5V6.75H12.5V7.5ZM12.5 12.5V13.25H17.5V12.5V11.75H12.5V12.5ZM12.5 17.5V18.25H17.5V17.5V16.75H12.5V17.5Z" fill="#2E2216"/>
</svg>
