<svg width="28" height="28" viewBox="0 0 28 28" fill="none" xmlns="http://www.w3.org/2000/svg">
<path d="M10.5 22.9201C11.3551 23.8889 12.6062 24.5 14 24.5C15.3938 24.5 16.6449 23.8889 17.5 22.9201M18.6667 2.2581C21.4515 3.64204 23.5348 6.22597 24.2399 9.33333M20.997 15.3777V11.6668C20.997 7.79078 17.876 4.66677 14 4.66677C10.124 4.66677 6.9608 7.65759 6.9608 11.6668V15.3526C6.9608 15.9163 6.87294 16.4763 6.70061 17.011L5.83907 19.6845C5.81548 19.7577 5.86815 19.8333 5.94275 19.8333H22.0071C22.086 19.8333 22.1419 19.7564 22.1178 19.6814L21.2504 16.9898C21.0825 16.4689 20.997 15.925 20.997 15.3777Z" stroke="#2E2216" stroke-width="1.2" stroke-linecap="round"/>
</svg>
