<svg width="24" height="24" viewBox="0 0 24 24" fill="none" xmlns="http://www.w3.org/2000/svg">
<path d="M7.41321 8.42303C8.24195 10.1491 9.37168 11.7669 10.8024 13.1976C12.2332 14.6284 13.8509 15.7581 15.577 16.5868C15.7255 16.6581 15.7997 16.6938 15.8937 16.7211C16.2275 16.8184 16.6374 16.7486 16.9201 16.5461C16.9997 16.4892 17.0677 16.4211 17.2038 16.285C17.6201 15.8687 17.8283 15.6606 18.0376 15.5245C18.8269 15.0113 19.8444 15.0113 20.6337 15.5245C20.8431 15.6606 21.0512 15.8687 21.4675 16.285L21.6995 16.517C22.3323 17.1498 22.6487 17.4662 22.8206 17.806C23.1624 18.4818 23.1624 19.2799 22.8206 19.9557C22.6487 20.2955 22.3323 20.6119 21.6995 21.2447L21.5118 21.4324C20.8812 22.0631 20.5659 22.3784 20.1372 22.6192C19.6615 22.8864 18.9226 23.0786 18.377 23.0769C17.8853 23.0755 17.5493 22.9801 16.8772 22.7893C13.2653 21.7642 9.85699 19.8299 7.01358 16.9865C4.17017 14.143 2.23588 10.7348 1.21071 7.12286C1.01995 6.45077 0.924568 6.11472 0.923106 5.62301C0.921482 5.0774 1.11362 4.33857 1.38084 3.86287C1.62166 3.43418 1.93698 3.11886 2.56761 2.48823L2.75531 2.30053C3.3881 1.66773 3.7045 1.35133 4.04431 1.17946C4.72012 0.837641 5.51821 0.837641 6.19402 1.17946C6.53382 1.35133 6.85022 1.66773 7.48302 2.30053L7.71506 2.53256C8.13134 2.94885 8.33948 3.15699 8.47556 3.36629C8.98875 4.15561 8.98876 5.17317 8.47556 5.96249C8.33948 6.17179 8.13134 6.37993 7.71506 6.79621C7.57894 6.93232 7.51089 7.00038 7.45392 7.07994C7.25149 7.36265 7.18159 7.77256 7.2789 8.10638C7.30628 8.20032 7.34192 8.27456 7.41321 8.42303Z" fill="white"/>
</svg>
