<svg width="30" height="30" viewBox="0 0 30 30" fill="none" xmlns="http://www.w3.org/2000/svg">
<path d="M3 23.8454C3 21.0924 4.9398 18.7474 7.57605 18.3135L7.81351 18.2744C9.92448 17.927 12.0755 17.927 14.1865 18.2744L14.424 18.3135C17.0602 18.7474 19 21.0924 19 23.8454C19 25.0354 18.0646 26 16.9107 26H5.08929C3.93541 26 3 25.0354 3 23.8454Z" stroke="#2E2216" stroke-width="1.5"/>
<path d="M15.6667 8.8125C15.6667 11.4704 13.5773 13.625 11 13.625C8.42267 13.625 6.33333 11.4704 6.33333 8.8125C6.33333 6.15463 8.42267 4 11 4C13.5773 4 15.6667 6.15463 15.6667 8.8125Z" stroke="#2E2216" stroke-width="1.5"/>
<path d="M19 13.625C21.5773 13.625 23.6667 11.4704 23.6667 8.8125C23.6667 6.15463 21.5773 4 19 4M22.1865 26H24.9107C26.0646 26 27 25.0354 27 23.8454C27 21.0924 25.0602 18.7474 22.424 18.3135C22.2659 18.2875 22.1057 18.2744 21.9455 18.2744C21.5193 18.2744 21.3869 18.2744 20.6549 18.2744" stroke="#2E2216" stroke-width="1.5" stroke-linecap="round"/>
</svg>
