<svg width="30" height="30" viewBox="0 0 30 30" fill="none" xmlns="http://www.w3.org/2000/svg">
<g clip-path="url(#clip0_123_5565)">
<path d="M24.5097 23.9921C24.0139 23.0207 23.3596 22.1094 22.5468 21.2966C18.3788 17.1287 11.6213 17.1287 7.4534 21.2966C6.64059 22.1094 5.98629 23.0207 5.4905 23.9921M1.25 15C1.25 7.40608 7.40609 1.25 15 1.25C22.5939 1.25 28.75 7.40609 28.75 15C28.75 22.5939 22.5939 28.75 15 28.75C7.40608 28.75 1.25 22.5939 1.25 15ZM20 12.5C20 15.2614 17.7614 17.5 15 17.5C12.2386 17.5 10 15.2614 10 12.5C10 9.73857 12.2386 7.5 15 7.5C17.7614 7.5 20 9.73857 20 12.5Z" stroke="#2E2216" stroke-width="1.5"/>
</g>
<defs>
<clipPath id="clip0_123_5565">
<rect width="30" height="30" fill="white"/>
</clipPath>
</defs>
</svg>
